  0
SECTION
  2
BLOCKS
  0
ENDSEC
  0
SECTION
  2
ENTITIES
  0
LINE
  8
0
 10
291.032
 20
0.753754
 11
291.064
 21
0.760071
  0
LINE
  8
0
 10
291.064
 20
0.760071
 11
291.095
 21
0.770508
  0
LINE
  8
0
 10
291.095
 20
0.770508
 11
291.124
 21
0.784897
  0
LINE
  8
0
 10
291.124
 20
0.784897
 11
291.151
 21
0.802917
  0
LINE
  8
0
 10
291.151
 20
0.802917
 11
291.176
 21
0.824371
  0
LINE
  8
0
 10
291.176
 20
0.824371
 11
291.197
 21
0.848816
  0
LINE
  8
0
 10
291.197
 20
0.848816
 11
291.215
 21
0.875778
  0
LINE
  8
0
 10
291.215
 20
0.875778
 11
291.229
 21
0.904953
  0
LINE
  8
0
 10
291.229
 20
0.904953
 11
291.24
 21
0.935699
  0
LINE
  8
0
 10
291.24
 20
0.935699
 11
291.246
 21
0.967529
  0
LINE
  8
0
 10
291.246
 20
0.967529
 11
291.25
 21
1.02466
  0
LINE
  8
0
 10
291.25
 20
1.02466
 11
291.25
 21
34.8804
  0
LINE
  8
0
 10
291.25
 20
34.8804
 11
291.013
 21
34.6729
  0
LINE
  8
0
 10
291.013
 20
34.6729
 11
290.475
 21
34.3132
  0
LINE
  8
0
 10
290.475
 20
34.3132
 11
289.894
 21
34.0268
  0
LINE
  8
0
 10
289.894
 20
34.0268
 11
289.281
 21
33.8187
  0
LINE
  8
0
 10
289.281
 20
33.8187
 11
288.646
 21
33.6923
  0
LINE
  8
0
 10
288.646
 20
33.6923
 11
288
 21
33.65
  0
LINE
  8
0
 10
288
 20
33.65
 11
287.354
 21
33.6923
  0
LINE
  8
0
 10
287.354
 20
33.6923
 11
286.719
 21
33.8187
  0
LINE
  8
0
 10
286.719
 20
33.8187
 11
286.106
 21
34.0268
  0
LINE
  8
0
 10
286.106
 20
34.0268
 11
285.525
 21
34.3132
  0
LINE
  8
0
 10
285.525
 20
34.3132
 11
284.987
 21
34.6729
  0
LINE
  8
0
 10
284.987
 20
34.6729
 11
284.5
 21
35.0998
  0
LINE
  8
0
 10
284.5
 20
35.0998
 11
284.073
 21
35.5866
  0
LINE
  8
0
 10
284.073
 20
35.5866
 11
283.713
 21
36.125
  0
LINE
  8
0
 10
283.713
 20
36.125
 11
283.427
 21
36.7057
  0
LINE
  8
0
 10
283.427
 20
36.7057
 11
283.219
 21
37.3188
  0
LINE
  8
0
 10
283.219
 20
37.3188
 11
283.092
 21
37.9539
  0
LINE
  8
0
 10
283.092
 20
37.9539
 11
283.05
 21
38.6
  0
LINE
  8
0
 10
283.05
 20
38.6
 11
283.092
 21
39.2461
  0
LINE
  8
0
 10
283.092
 20
39.2461
 11
283.219
 21
39.8811
  0
LINE
  8
0
 10
283.219
 20
39.8811
 11
283.427
 21
40.4943
  0
LINE
  8
0
 10
283.427
 20
40.4943
 11
283.713
 21
41.075
  0
LINE
  8
0
 10
283.713
 20
41.075
 11
284.073
 21
41.6134
  0
LINE
  8
0
 10
284.073
 20
41.6134
 11
284.5
 21
42.1002
  0
LINE
  8
0
 10
284.5
 20
42.1002
 11
284.987
 21
42.5271
  0
LINE
  8
0
 10
284.987
 20
42.5271
 11
285.525
 21
42.8868
  0
LINE
  8
0
 10
285.525
 20
42.8868
 11
286.106
 21
43.1732
  0
LINE
  8
0
 10
286.106
 20
43.1732
 11
286.719
 21
43.3813
  0
LINE
  8
0
 10
286.719
 20
43.3813
 11
287.354
 21
43.5076
  0
LINE
  8
0
 10
287.354
 20
43.5076
 11
288
 21
43.55
  0
LINE
  8
0
 10
288
 20
43.55
 11
288.646
 21
43.5076
  0
LINE
  8
0
 10
288.646
 20
43.5076
 11
289.281
 21
43.3813
  0
LINE
  8
0
 10
289.281
 20
43.3813
 11
289.894
 21
43.1732
  0
LINE
  8
0
 10
289.894
 20
43.1732
 11
290.475
 21
42.8868
  0
LINE
  8
0
 10
290.475
 20
42.8868
 11
291.013
 21
42.5271
  0
LINE
  8
0
 10
291.013
 20
42.5271
 11
291.25
 21
42.3196
  0
LINE
  8
0
 10
291.25
 20
42.3196
 11
291.25
 21
94.5753
  0
LINE
  8
0
 10
291.25
 20
94.5753
 11
291.246
 21
94.6325
  0
LINE
  8
0
 10
291.246
 20
94.6325
 11
291.24
 21
94.6643
  0
LINE
  8
0
 10
291.24
 20
94.6643
 11
291.229
 21
94.695
  0
LINE
  8
0
 10
291.229
 20
94.695
 11
291.215
 21
94.7242
  0
LINE
  8
0
 10
291.215
 20
94.7242
 11
291.197
 21
94.7512
  0
LINE
  8
0
 10
291.197
 20
94.7512
 11
291.176
 21
94.7756
  0
LINE
  8
0
 10
291.176
 20
94.7756
 11
291.151
 21
94.7971
  0
LINE
  8
0
 10
291.151
 20
94.7971
 11
291.124
 21
94.8151
  0
LINE
  8
0
 10
291.124
 20
94.8151
 11
291.095
 21
94.8295
  0
LINE
  8
0
 10
291.095
 20
94.8295
 11
291.064
 21
94.8399
  0
LINE
  8
0
 10
291.064
 20
94.8399
 11
291.032
 21
94.8462
  0
LINE
  8
0
 10
291.032
 20
94.8462
 11
290.975
 21
94.85
  0
LINE
  8
0
 10
290.975
 20
94.85
 11
66.5
 21
94.85
  0
LINE
  8
0
 10
66.5
 20
94.85
 11
66.5
 21
81.6
  0
LINE
  8
0
 10
66.5
 20
81.6
 11
18.5
 21
81.6
  0
LINE
  8
0
 10
18.5
 20
81.6
 11
18.5
 21
94.85
  0
LINE
  8
0
 10
18.5
 20
94.85
 11
7.02466
 21
94.85
  0
LINE
  8
0
 10
7.02466
 20
94.85
 11
6.96753
 21
94.8462
  0
LINE
  8
0
 10
6.96753
 20
94.8462
 11
6.9357
 21
94.8399
  0
LINE
  8
0
 10
6.9357
 20
94.8399
 11
6.90495
 21
94.8295
  0
LINE
  8
0
 10
6.90495
 20
94.8295
 11
6.87578
 21
94.8151
  0
LINE
  8
0
 10
6.87578
 20
94.8151
 11
6.84882
 21
94.7971
  0
LINE
  8
0
 10
6.84882
 20
94.7971
 11
6.82437
 21
94.7756
  0
LINE
  8
0
 10
6.82437
 20
94.7756
 11
6.80292
 21
94.7512
  0
LINE
  8
0
 10
6.80292
 20
94.7512
 11
6.7849
 21
94.7242
  0
LINE
  8
0
 10
6.7849
 20
94.7242
 11
6.77051
 21
94.695
  0
LINE
  8
0
 10
6.77051
 20
94.695
 11
6.76007
 21
94.6643
  0
LINE
  8
0
 10
6.76007
 20
94.6643
 11
6.75375
 21
94.6325
  0
LINE
  8
0
 10
6.75375
 20
94.6325
 11
6.75
 21
94.5753
  0
LINE
  8
0
 10
6.75
 20
94.5753
 11
6.75
 21
42.3196
  0
LINE
  8
0
 10
6.75
 20
42.3196
 11
6.98662
 21
42.5271
  0
LINE
  8
0
 10
6.98662
 20
42.5271
 11
7.52499
 21
42.8868
  0
LINE
  8
0
 10
7.52499
 20
42.8868
 11
8.10571
 21
43.1732
  0
LINE
  8
0
 10
8.10571
 20
43.1732
 11
8.71884
 21
43.3813
  0
LINE
  8
0
 10
8.71884
 20
43.3813
 11
9.35388
 21
43.5076
  0
LINE
  8
0
 10
9.35388
 20
43.5076
 11
10
 21
43.55
  0
LINE
  8
0
 10
10
 20
43.55
 11
10.6461
 21
43.5076
  0
LINE
  8
0
 10
10.6461
 20
43.5076
 11
11.2811
 21
43.3813
  0
LINE
  8
0
 10
11.2811
 20
43.3813
 11
11.8943
 21
43.1732
  0
LINE
  8
0
 10
11.8943
 20
43.1732
 11
12.475
 21
42.8868
  0
LINE
  8
0
 10
12.475
 20
42.8868
 11
13.0134
 21
42.5271
  0
LINE
  8
0
 10
13.0134
 20
42.5271
 11
13.5002
 21
42.1002
  0
LINE
  8
0
 10
13.5002
 20
42.1002
 11
13.9271
 21
41.6134
  0
LINE
  8
0
 10
13.9271
 20
41.6134
 11
14.2868
 21
41.075
  0
LINE
  8
0
 10
14.2868
 20
41.075
 11
14.5732
 21
40.4943
  0
LINE
  8
0
 10
14.5732
 20
40.4943
 11
14.7813
 21
39.8811
  0
LINE
  8
0
 10
14.7813
 20
39.8811
 11
14.9076
 21
39.2461
  0
LINE
  8
0
 10
14.9076
 20
39.2461
 11
14.95
 21
38.6
  0
LINE
  8
0
 10
14.95
 20
38.6
 11
14.9076
 21
37.9539
  0
LINE
  8
0
 10
14.9076
 20
37.9539
 11
14.7813
 21
37.3188
  0
LINE
  8
0
 10
14.7813
 20
37.3188
 11
14.5732
 21
36.7057
  0
LINE
  8
0
 10
14.5732
 20
36.7057
 11
14.2868
 21
36.125
  0
LINE
  8
0
 10
14.2868
 20
36.125
 11
13.9271
 21
35.5866
  0
LINE
  8
0
 10
13.9271
 20
35.5866
 11
13.5002
 21
35.0998
  0
LINE
  8
0
 10
13.5002
 20
35.0998
 11
13.0134
 21
34.6729
  0
LINE
  8
0
 10
13.0134
 20
34.6729
 11
12.475
 21
34.3132
  0
LINE
  8
0
 10
12.475
 20
34.3132
 11
11.8943
 21
34.0268
  0
LINE
  8
0
 10
11.8943
 20
34.0268
 11
11.2811
 21
33.8187
  0
LINE
  8
0
 10
11.2811
 20
33.8187
 11
10.6461
 21
33.6923
  0
LINE
  8
0
 10
10.6461
 20
33.6923
 11
10
 21
33.65
  0
LINE
  8
0
 10
10
 20
33.65
 11
9.35388
 21
33.6923
  0
LINE
  8
0
 10
9.35388
 20
33.6923
 11
8.71884
 21
33.8187
  0
LINE
  8
0
 10
8.71884
 20
33.8187
 11
8.10571
 21
34.0268
  0
LINE
  8
0
 10
8.10571
 20
34.0268
 11
7.52499
 21
34.3132
  0
LINE
  8
0
 10
7.52499
 20
34.3132
 11
6.98662
 21
34.6729
  0
LINE
  8
0
 10
6.98662
 20
34.6729
 11
6.75
 21
34.8804
  0
LINE
  8
0
 10
6.75
 20
34.8804
 11
6.75
 21
1.02466
  0
LINE
  8
0
 10
6.75
 20
1.02466
 11
6.75375
 21
0.967529
  0
LINE
  8
0
 10
6.75375
 20
0.967529
 11
6.76007
 21
0.935699
  0
LINE
  8
0
 10
6.76007
 20
0.935699
 11
6.77051
 21
0.904953
  0
LINE
  8
0
 10
6.77051
 20
0.904953
 11
6.7849
 21
0.875778
  0
LINE
  8
0
 10
6.7849
 20
0.875778
 11
6.80292
 21
0.848816
  0
LINE
  8
0
 10
6.80292
 20
0.848816
 11
6.82437
 21
0.824371
  0
LINE
  8
0
 10
6.82437
 20
0.824371
 11
6.84882
 21
0.802917
  0
LINE
  8
0
 10
6.84882
 20
0.802917
 11
6.87578
 21
0.784897
  0
LINE
  8
0
 10
6.87578
 20
0.784897
 11
6.90495
 21
0.770508
  0
LINE
  8
0
 10
6.90495
 20
0.770508
 11
6.9357
 21
0.760071
  0
LINE
  8
0
 10
6.9357
 20
0.760071
 11
6.96753
 21
0.753754
  0
LINE
  8
0
 10
6.96753
 20
0.753754
 11
7.02466
 21
0.75
  0
LINE
  8
0
 10
7.02466
 20
0.75
 11
290.975
 21
0.75
  0
LINE
  8
0
 10
290.975
 20
0.75
 11
291.032
 21
0.753754
  0
LINE
  8
0
 10
31.0539
 20
62.2923
 11
30.4188
 21
62.4187
  0
LINE
  8
0
 10
30.4188
 20
62.4187
 11
29.8057
 21
62.6268
  0
LINE
  8
0
 10
29.8057
 20
62.6268
 11
29.225
 21
62.9132
  0
LINE
  8
0
 10
29.225
 20
62.9132
 11
28.6866
 21
63.2729
  0
LINE
  8
0
 10
28.6866
 20
63.2729
 11
28.1998
 21
63.6998
  0
LINE
  8
0
 10
28.1998
 20
63.6998
 11
27.7729
 21
64.1866
  0
LINE
  8
0
 10
27.7729
 20
64.1866
 11
27.4132
 21
64.725
  0
LINE
  8
0
 10
27.4132
 20
64.725
 11
27.1268
 21
65.3057
  0
LINE
  8
0
 10
27.1268
 20
65.3057
 11
26.9187
 21
65.9188
  0
LINE
  8
0
 10
26.9187
 20
65.9188
 11
26.7923
 21
66.5539
  0
LINE
  8
0
 10
26.7923
 20
66.5539
 11
26.75
 21
67.2
  0
LINE
  8
0
 10
26.75
 20
67.2
 11
26.7923
 21
67.8461
  0
LINE
  8
0
 10
26.7923
 20
67.8461
 11
26.9187
 21
68.4811
  0
LINE
  8
0
 10
26.9187
 20
68.4811
 11
27.1268
 21
69.0943
  0
LINE
  8
0
 10
27.1268
 20
69.0943
 11
27.4132
 21
69.675
  0
LINE
  8
0
 10
27.4132
 20
69.675
 11
27.7729
 21
70.2134
  0
LINE
  8
0
 10
27.7729
 20
70.2134
 11
28.1998
 21
70.7002
  0
LINE
  8
0
 10
28.1998
 20
70.7002
 11
28.6866
 21
71.1271
  0
LINE
  8
0
 10
28.6866
 20
71.1271
 11
29.225
 21
71.4868
  0
LINE
  8
0
 10
29.225
 20
71.4868
 11
29.8057
 21
71.7732
  0
LINE
  8
0
 10
29.8057
 20
71.7732
 11
30.4188
 21
71.9813
  0
LINE
  8
0
 10
30.4188
 20
71.9813
 11
31.0539
 21
72.1077
  0
LINE
  8
0
 10
31.0539
 20
72.1077
 11
31.7
 21
72.15
  0
LINE
  8
0
 10
31.7
 20
72.15
 11
32.3461
 21
72.1077
  0
LINE
  8
0
 10
32.3461
 20
72.1077
 11
32.9811
 21
71.9813
  0
LINE
  8
0
 10
32.9811
 20
71.9813
 11
33.5943
 21
71.7732
  0
LINE
  8
0
 10
33.5943
 20
71.7732
 11
34.175
 21
71.4868
  0
LINE
  8
0
 10
34.175
 20
71.4868
 11
34.7134
 21
71.1271
  0
LINE
  8
0
 10
34.7134
 20
71.1271
 11
35.2002
 21
70.7002
  0
LINE
  8
0
 10
35.2002
 20
70.7002
 11
35.6271
 21
70.2134
  0
LINE
  8
0
 10
35.6271
 20
70.2134
 11
35.9868
 21
69.675
  0
LINE
  8
0
 10
35.9868
 20
69.675
 11
36.2732
 21
69.0943
  0
LINE
  8
0
 10
36.2732
 20
69.0943
 11
36.4813
 21
68.4811
  0
LINE
  8
0
 10
36.4813
 20
68.4811
 11
36.6077
 21
67.8461
  0
LINE
  8
0
 10
36.6077
 20
67.8461
 11
36.65
 21
67.2
  0
LINE
  8
0
 10
36.65
 20
67.2
 11
36.6077
 21
66.5539
  0
LINE
  8
0
 10
36.6077
 20
66.5539
 11
36.4813
 21
65.9188
  0
LINE
  8
0
 10
36.4813
 20
65.9188
 11
36.2732
 21
65.3057
  0
LINE
  8
0
 10
36.2732
 20
65.3057
 11
35.9868
 21
64.725
  0
LINE
  8
0
 10
35.9868
 20
64.725
 11
35.6271
 21
64.1866
  0
LINE
  8
0
 10
35.6271
 20
64.1866
 11
35.2002
 21
63.6998
  0
LINE
  8
0
 10
35.2002
 20
63.6998
 11
34.7134
 21
63.2729
  0
LINE
  8
0
 10
34.7134
 20
63.2729
 11
34.175
 21
62.9132
  0
LINE
  8
0
 10
34.175
 20
62.9132
 11
33.5943
 21
62.6268
  0
LINE
  8
0
 10
33.5943
 20
62.6268
 11
32.9811
 21
62.4187
  0
LINE
  8
0
 10
32.9811
 20
62.4187
 11
32.3461
 21
62.2923
  0
LINE
  8
0
 10
32.3461
 20
62.2923
 11
31.7
 21
62.25
  0
LINE
  8
0
 10
31.7
 20
62.25
 11
31.0539
 21
62.2923
  0
LINE
  8
0
 10
265.904
 20
62.2923
 11
265.269
 21
62.4187
  0
LINE
  8
0
 10
265.269
 20
62.4187
 11
264.656
 21
62.6268
  0
LINE
  8
0
 10
264.656
 20
62.6268
 11
264.075
 21
62.9132
  0
LINE
  8
0
 10
264.075
 20
62.9132
 11
263.537
 21
63.2729
  0
LINE
  8
0
 10
263.537
 20
63.2729
 11
263.05
 21
63.6998
  0
LINE
  8
0
 10
263.05
 20
63.6998
 11
262.623
 21
64.1866
  0
LINE
  8
0
 10
262.623
 20
64.1866
 11
262.263
 21
64.725
  0
LINE
  8
0
 10
262.263
 20
64.725
 11
261.977
 21
65.3057
  0
LINE
  8
0
 10
261.977
 20
65.3057
 11
261.769
 21
65.9188
  0
LINE
  8
0
 10
261.769
 20
65.9188
 11
261.642
 21
66.5539
  0
LINE
  8
0
 10
261.642
 20
66.5539
 11
261.6
 21
67.2
  0
LINE
  8
0
 10
261.6
 20
67.2
 11
261.642
 21
67.8461
  0
LINE
  8
0
 10
261.642
 20
67.8461
 11
261.769
 21
68.4811
  0
LINE
  8
0
 10
261.769
 20
68.4811
 11
261.977
 21
69.0943
  0
LINE
  8
0
 10
261.977
 20
69.0943
 11
262.263
 21
69.675
  0
LINE
  8
0
 10
262.263
 20
69.675
 11
262.623
 21
70.2134
  0
LINE
  8
0
 10
262.623
 20
70.2134
 11
263.05
 21
70.7002
  0
LINE
  8
0
 10
263.05
 20
70.7002
 11
263.537
 21
71.1271
  0
LINE
  8
0
 10
263.537
 20
71.1271
 11
264.075
 21
71.4868
  0
LINE
  8
0
 10
264.075
 20
71.4868
 11
264.656
 21
71.7732
  0
LINE
  8
0
 10
264.656
 20
71.7732
 11
265.269
 21
71.9813
  0
LINE
  8
0
 10
265.269
 20
71.9813
 11
265.904
 21
72.1077
  0
LINE
  8
0
 10
265.904
 20
72.1077
 11
266.55
 21
72.15
  0
LINE
  8
0
 10
266.55
 20
72.15
 11
267.196
 21
72.1077
  0
LINE
  8
0
 10
267.196
 20
72.1077
 11
267.831
 21
71.9813
  0
LINE
  8
0
 10
267.831
 20
71.9813
 11
268.444
 21
71.7732
  0
LINE
  8
0
 10
268.444
 20
71.7732
 11
269.025
 21
71.4868
  0
LINE
  8
0
 10
269.025
 20
71.4868
 11
269.563
 21
71.1271
  0
LINE
  8
0
 10
269.563
 20
71.1271
 11
270.05
 21
70.7002
  0
LINE
  8
0
 10
270.05
 20
70.7002
 11
270.477
 21
70.2134
  0
LINE
  8
0
 10
270.477
 20
70.2134
 11
270.837
 21
69.675
  0
LINE
  8
0
 10
270.837
 20
69.675
 11
271.123
 21
69.0943
  0
LINE
  8
0
 10
271.123
 20
69.0943
 11
271.331
 21
68.4811
  0
LINE
  8
0
 10
271.331
 20
68.4811
 11
271.458
 21
67.8461
  0
LINE
  8
0
 10
271.458
 20
67.8461
 11
271.5
 21
67.2
  0
LINE
  8
0
 10
271.5
 20
67.2
 11
271.458
 21
66.5539
  0
LINE
  8
0
 10
271.458
 20
66.5539
 11
271.331
 21
65.9188
  0
LINE
  8
0
 10
271.331
 20
65.9188
 11
271.123
 21
65.3057
  0
LINE
  8
0
 10
271.123
 20
65.3057
 11
270.837
 21
64.725
  0
LINE
  8
0
 10
270.837
 20
64.725
 11
270.477
 21
64.1866
  0
LINE
  8
0
 10
270.477
 20
64.1866
 11
270.05
 21
63.6998
  0
LINE
  8
0
 10
270.05
 20
63.6998
 11
269.563
 21
63.2729
  0
LINE
  8
0
 10
269.563
 20
63.2729
 11
269.025
 21
62.9132
  0
LINE
  8
0
 10
269.025
 20
62.9132
 11
268.444
 21
62.6268
  0
LINE
  8
0
 10
268.444
 20
62.6268
 11
267.831
 21
62.4187
  0
LINE
  8
0
 10
267.831
 20
62.4187
 11
267.196
 21
62.2923
  0
LINE
  8
0
 10
267.196
 20
62.2923
 11
266.55
 21
62.25
  0
LINE
  8
0
 10
266.55
 20
62.25
 11
265.904
 21
62.2923
  0
LINE
  8
0
 10
134.054
 20
42.8923
 11
133.419
 21
43.0187
  0
LINE
  8
0
 10
133.419
 20
43.0187
 11
132.806
 21
43.2268
  0
LINE
  8
0
 10
132.806
 20
43.2268
 11
132.225
 21
43.5132
  0
LINE
  8
0
 10
132.225
 20
43.5132
 11
131.687
 21
43.8729
  0
LINE
  8
0
 10
131.687
 20
43.8729
 11
131.2
 21
44.2998
  0
LINE
  8
0
 10
131.2
 20
44.2998
 11
130.773
 21
44.7866
  0
LINE
  8
0
 10
130.773
 20
44.7866
 11
130.413
 21
45.325
  0
LINE
  8
0
 10
130.413
 20
45.325
 11
130.127
 21
45.9057
  0
LINE
  8
0
 10
130.127
 20
45.9057
 11
129.919
 21
46.5188
  0
LINE
  8
0
 10
129.919
 20
46.5188
 11
129.792
 21
47.1539
  0
LINE
  8
0
 10
129.792
 20
47.1539
 11
129.75
 21
47.8
  0
LINE
  8
0
 10
129.75
 20
47.8
 11
129.792
 21
48.4461
  0
LINE
  8
0
 10
129.792
 20
48.4461
 11
129.919
 21
49.0811
  0
LINE
  8
0
 10
129.919
 20
49.0811
 11
130.127
 21
49.6943
  0
LINE
  8
0
 10
130.127
 20
49.6943
 11
130.413
 21
50.275
  0
LINE
  8
0
 10
130.413
 20
50.275
 11
130.773
 21
50.8134
  0
LINE
  8
0
 10
130.773
 20
50.8134
 11
131.2
 21
51.3002
  0
LINE
  8
0
 10
131.2
 20
51.3002
 11
131.687
 21
51.7271
  0
LINE
  8
0
 10
131.687
 20
51.7271
 11
132.225
 21
52.0868
  0
LINE
  8
0
 10
132.225
 20
52.0868
 11
132.806
 21
52.3732
  0
LINE
  8
0
 10
132.806
 20
52.3732
 11
133.419
 21
52.5813
  0
LINE
  8
0
 10
133.419
 20
52.5813
 11
134.054
 21
52.7076
  0
LINE
  8
0
 10
134.054
 20
52.7076
 11
134.7
 21
52.75
  0
LINE
  8
0
 10
134.7
 20
52.75
 11
135.346
 21
52.7076
  0
LINE
  8
0
 10
135.346
 20
52.7076
 11
135.981
 21
52.5813
  0
LINE
  8
0
 10
135.981
 20
52.5813
 11
136.594
 21
52.3732
  0
LINE
  8
0
 10
136.594
 20
52.3732
 11
137.175
 21
52.0868
  0
LINE
  8
0
 10
137.175
 20
52.0868
 11
137.713
 21
51.7271
  0
LINE
  8
0
 10
137.713
 20
51.7271
 11
138.2
 21
51.3002
  0
LINE
  8
0
 10
138.2
 20
51.3002
 11
138.627
 21
50.8134
  0
LINE
  8
0
 10
138.627
 20
50.8134
 11
138.987
 21
50.275
  0
LINE
  8
0
 10
138.987
 20
50.275
 11
139.273
 21
49.6943
  0
LINE
  8
0
 10
139.273
 20
49.6943
 11
139.481
 21
49.0811
  0
LINE
  8
0
 10
139.481
 20
49.0811
 11
139.608
 21
48.4461
  0
LINE
  8
0
 10
139.608
 20
48.4461
 11
139.65
 21
47.8
  0
LINE
  8
0
 10
139.65
 20
47.8
 11
139.608
 21
47.1539
  0
LINE
  8
0
 10
139.608
 20
47.1539
 11
139.481
 21
46.5188
  0
LINE
  8
0
 10
139.481
 20
46.5188
 11
139.273
 21
45.9057
  0
LINE
  8
0
 10
139.273
 20
45.9057
 11
138.987
 21
45.325
  0
LINE
  8
0
 10
138.987
 20
45.325
 11
138.627
 21
44.7866
  0
LINE
  8
0
 10
138.627
 20
44.7866
 11
138.2
 21
44.2998
  0
LINE
  8
0
 10
138.2
 20
44.2998
 11
137.713
 21
43.8729
  0
LINE
  8
0
 10
137.713
 20
43.8729
 11
137.175
 21
43.5132
  0
LINE
  8
0
 10
137.175
 20
43.5132
 11
136.594
 21
43.2268
  0
LINE
  8
0
 10
136.594
 20
43.2268
 11
135.981
 21
43.0187
  0
LINE
  8
0
 10
135.981
 20
43.0187
 11
135.346
 21
42.8923
  0
LINE
  8
0
 10
135.346
 20
42.8923
 11
134.7
 21
42.85
  0
LINE
  8
0
 10
134.7
 20
42.85
 11
134.054
 21
42.8923
  0
LINE
  8
0
 10
196.354
 20
4.99234
 11
195.719
 21
5.11865
  0
LINE
  8
0
 10
195.719
 20
5.11865
 11
195.106
 21
5.32678
  0
LINE
  8
0
 10
195.106
 20
5.32678
 11
194.525
 21
5.61316
  0
LINE
  8
0
 10
194.525
 20
5.61316
 11
193.987
 21
5.9729
  0
LINE
  8
0
 10
193.987
 20
5.9729
 11
193.5
 21
6.39981
  0
LINE
  8
0
 10
193.5
 20
6.39981
 11
193.073
 21
6.88663
  0
LINE
  8
0
 10
193.073
 20
6.88663
 11
192.713
 21
7.42499
  0
LINE
  8
0
 10
192.713
 20
7.42499
 11
192.427
 21
8.00571
  0
LINE
  8
0
 10
192.427
 20
8.00571
 11
192.219
 21
8.61884
  0
LINE
  8
0
 10
192.219
 20
8.61884
 11
192.092
 21
9.25389
  0
LINE
  8
0
 10
192.092
 20
9.25389
 11
192.05
 21
9.89999
  0
LINE
  8
0
 10
192.05
 20
9.89999
 11
192.092
 21
10.5461
  0
LINE
  8
0
 10
192.092
 20
10.5461
 11
192.219
 21
11.1812
  0
LINE
  8
0
 10
192.219
 20
11.1812
 11
192.427
 21
11.7943
  0
LINE
  8
0
 10
192.427
 20
11.7943
 11
192.713
 21
12.375
  0
LINE
  8
0
 10
192.713
 20
12.375
 11
193.073
 21
12.9134
  0
LINE
  8
0
 10
193.073
 20
12.9134
 11
193.5
 21
13.4002
  0
LINE
  8
0
 10
193.5
 20
13.4002
 11
193.987
 21
13.8271
  0
LINE
  8
0
 10
193.987
 20
13.8271
 11
194.525
 21
14.1868
  0
LINE
  8
0
 10
194.525
 20
14.1868
 11
195.106
 21
14.4732
  0
LINE
  8
0
 10
195.106
 20
14.4732
 11
195.719
 21
14.6813
  0
LINE
  8
0
 10
195.719
 20
14.6813
 11
196.354
 21
14.8076
  0
LINE
  8
0
 10
196.354
 20
14.8076
 11
197
 21
14.85
  0
LINE
  8
0
 10
197
 20
14.85
 11
197.646
 21
14.8076
  0
LINE
  8
0
 10
197.646
 20
14.8076
 11
198.281
 21
14.6813
  0
LINE
  8
0
 10
198.281
 20
14.6813
 11
198.894
 21
14.4732
  0
LINE
  8
0
 10
198.894
 20
14.4732
 11
199.475
 21
14.1868
  0
LINE
  8
0
 10
199.475
 20
14.1868
 11
200.013
 21
13.8271
  0
LINE
  8
0
 10
200.013
 20
13.8271
 11
200.5
 21
13.4002
  0
LINE
  8
0
 10
200.5
 20
13.4002
 11
200.927
 21
12.9134
  0
LINE
  8
0
 10
200.927
 20
12.9134
 11
201.287
 21
12.375
  0
LINE
  8
0
 10
201.287
 20
12.375
 11
201.573
 21
11.7943
  0
LINE
  8
0
 10
201.573
 20
11.7943
 11
201.781
 21
11.1812
  0
LINE
  8
0
 10
201.781
 20
11.1812
 11
201.908
 21
10.5461
  0
LINE
  8
0
 10
201.908
 20
10.5461
 11
201.95
 21
9.89999
  0
LINE
  8
0
 10
201.95
 20
9.89999
 11
201.908
 21
9.25389
  0
LINE
  8
0
 10
201.908
 20
9.25389
 11
201.781
 21
8.61884
  0
LINE
  8
0
 10
201.781
 20
8.61884
 11
201.573
 21
8.00571
  0
LINE
  8
0
 10
201.573
 20
8.00571
 11
201.287
 21
7.42499
  0
LINE
  8
0
 10
201.287
 20
7.42499
 11
200.927
 21
6.88663
  0
LINE
  8
0
 10
200.927
 20
6.88663
 11
200.5
 21
6.39981
  0
LINE
  8
0
 10
200.5
 20
6.39981
 11
200.013
 21
5.9729
  0
LINE
  8
0
 10
200.013
 20
5.9729
 11
199.475
 21
5.61316
  0
LINE
  8
0
 10
199.475
 20
5.61316
 11
198.894
 21
5.32678
  0
LINE
  8
0
 10
198.894
 20
5.32678
 11
198.281
 21
5.11865
  0
LINE
  8
0
 10
198.281
 20
5.11865
 11
197.646
 21
4.99234
  0
LINE
  8
0
 10
197.646
 20
4.99234
 11
197
 21
4.95
  0
LINE
  8
0
 10
197
 20
4.95
 11
196.354
 21
4.99234
  0
ENDSEC
  0
SECTION
  2
OBJECTS
  0
DICTIONARY
  0
ENDSEC
  0
EOF
