  0
SECTION
  2
BLOCKS
  0
ENDSEC
  0
SECTION
  2
ENTITIES
  0
LINE
  8
0
 10
290.631
 20
0.50856
 11
290.759
 21
0.534073
  0
LINE
  8
0
 10
290.759
 20
0.534073
 11
290.883
 21
0.576126
  0
LINE
  8
0
 10
290.883
 20
0.576126
 11
291
 21
0.633972
  0
LINE
  8
0
 10
291
 20
0.633972
 11
291.109
 21
0.70665
  0
LINE
  8
0
 10
291.109
 20
0.70665
 11
291.207
 21
0.792892
  0
LINE
  8
0
 10
291.207
 20
0.792892
 11
291.293
 21
0.891235
  0
LINE
  8
0
 10
291.293
 20
0.891235
 11
291.366
 21
1
  0
LINE
  8
0
 10
291.366
 20
1
 11
291.424
 21
1.11731
  0
LINE
  8
0
 10
291.424
 20
1.11731
 11
291.466
 21
1.24118
  0
LINE
  8
0
 10
291.466
 20
1.24118
 11
291.491
 21
1.36948
  0
LINE
  8
0
 10
291.491
 20
1.36948
 11
291.5
 21
1.5
  0
LINE
  8
0
 10
291.5
 20
1.5
 11
291.5
 21
36.5
  0
LINE
  8
0
 10
291.5
 20
36.5
 11
288
 21
36.5
  0
LINE
  8
0
 10
288
 20
36.5
 11
287.726
 21
36.518
  0
LINE
  8
0
 10
287.726
 20
36.518
 11
287.456
 21
36.5715
  0
LINE
  8
0
 10
287.456
 20
36.5715
 11
287.196
 21
36.6599
  0
LINE
  8
0
 10
287.196
 20
36.6599
 11
286.95
 21
36.7813
  0
LINE
  8
0
 10
286.95
 20
36.7813
 11
286.722
 21
36.9339
  0
LINE
  8
0
 10
286.722
 20
36.9339
 11
286.515
 21
37.1151
  0
LINE
  8
0
 10
286.515
 20
37.1151
 11
286.334
 21
37.3216
  0
LINE
  8
0
 10
286.334
 20
37.3216
 11
286.181
 21
37.55
  0
LINE
  8
0
 10
286.181
 20
37.55
 11
286.06
 21
37.7964
  0
LINE
  8
0
 10
286.06
 20
37.7964
 11
285.972
 21
38.0565
  0
LINE
  8
0
 10
285.972
 20
38.0565
 11
285.918
 21
38.3259
  0
LINE
  8
0
 10
285.918
 20
38.3259
 11
285.9
 21
38.6
  0
LINE
  8
0
 10
285.9
 20
38.6
 11
285.918
 21
38.8741
  0
LINE
  8
0
 10
285.918
 20
38.8741
 11
285.972
 21
39.1435
  0
LINE
  8
0
 10
285.972
 20
39.1435
 11
286.06
 21
39.4036
  0
LINE
  8
0
 10
286.06
 20
39.4036
 11
286.181
 21
39.65
  0
LINE
  8
0
 10
286.181
 20
39.65
 11
286.334
 21
39.8784
  0
LINE
  8
0
 10
286.334
 20
39.8784
 11
286.515
 21
40.0849
  0
LINE
  8
0
 10
286.515
 20
40.0849
 11
286.722
 21
40.266
  0
LINE
  8
0
 10
286.722
 20
40.266
 11
286.95
 21
40.4186
  0
LINE
  8
0
 10
286.95
 20
40.4186
 11
287.196
 21
40.5401
  0
LINE
  8
0
 10
287.196
 20
40.5401
 11
287.456
 21
40.6284
  0
LINE
  8
0
 10
287.456
 20
40.6284
 11
287.726
 21
40.682
  0
LINE
  8
0
 10
287.726
 20
40.682
 11
288
 21
40.7
  0
LINE
  8
0
 10
288
 20
40.7
 11
291.5
 21
40.7
  0
LINE
  8
0
 10
291.5
 20
40.7
 11
291.5
 21
94.1
  0
LINE
  8
0
 10
291.5
 20
94.1
 11
291.491
 21
94.2305
  0
LINE
  8
0
 10
291.491
 20
94.2305
 11
291.466
 21
94.3588
  0
LINE
  8
0
 10
291.466
 20
94.3588
 11
291.424
 21
94.4827
  0
LINE
  8
0
 10
291.424
 20
94.4827
 11
291.366
 21
94.6
  0
LINE
  8
0
 10
291.366
 20
94.6
 11
291.293
 21
94.7088
  0
LINE
  8
0
 10
291.293
 20
94.7088
 11
291.207
 21
94.8071
  0
LINE
  8
0
 10
291.207
 20
94.8071
 11
291.109
 21
94.8933
  0
LINE
  8
0
 10
291.109
 20
94.8933
 11
291
 21
94.966
  0
LINE
  8
0
 10
291
 20
94.966
 11
290.883
 21
95.0239
  0
LINE
  8
0
 10
290.883
 20
95.0239
 11
290.759
 21
95.0659
  0
LINE
  8
0
 10
290.759
 20
95.0659
 11
290.631
 21
95.0914
  0
LINE
  8
0
 10
290.631
 20
95.0914
 11
290.5
 21
95.1
  0
LINE
  8
0
 10
290.5
 20
95.1
 11
7.5
 21
95.1
  0
LINE
  8
0
 10
7.5
 20
95.1
 11
7.36948
 21
95.0914
  0
LINE
  8
0
 10
7.36948
 20
95.0914
 11
7.24118
 21
95.0659
  0
LINE
  8
0
 10
7.24118
 20
95.0659
 11
7.11731
 21
95.0239
  0
LINE
  8
0
 10
7.11731
 20
95.0239
 11
7
 21
94.966
  0
LINE
  8
0
 10
7
 20
94.966
 11
6.89124
 21
94.8933
  0
LINE
  8
0
 10
6.89124
 20
94.8933
 11
6.79289
 21
94.8071
  0
LINE
  8
0
 10
6.79289
 20
94.8071
 11
6.70665
 21
94.7088
  0
LINE
  8
0
 10
6.70665
 20
94.7088
 11
6.63397
 21
94.6
  0
LINE
  8
0
 10
6.63397
 20
94.6
 11
6.57613
 21
94.4827
  0
LINE
  8
0
 10
6.57613
 20
94.4827
 11
6.53407
 21
94.3588
  0
LINE
  8
0
 10
6.53407
 20
94.3588
 11
6.50856
 21
94.2305
  0
LINE
  8
0
 10
6.50856
 20
94.2305
 11
6.5
 21
94.1
  0
LINE
  8
0
 10
6.5
 20
94.1
 11
6.5
 21
40.7
  0
LINE
  8
0
 10
6.5
 20
40.7
 11
10
 21
40.7
  0
LINE
  8
0
 10
10
 20
40.7
 11
10.2741
 21
40.682
  0
LINE
  8
0
 10
10.2741
 20
40.682
 11
10.5435
 21
40.6284
  0
LINE
  8
0
 10
10.5435
 20
40.6284
 11
10.8036
 21
40.5401
  0
LINE
  8
0
 10
10.8036
 20
40.5401
 11
11.05
 21
40.4186
  0
LINE
  8
0
 10
11.05
 20
40.4186
 11
11.2784
 21
40.266
  0
LINE
  8
0
 10
11.2784
 20
40.266
 11
11.4849
 21
40.0849
  0
LINE
  8
0
 10
11.4849
 20
40.0849
 11
11.666
 21
39.8784
  0
LINE
  8
0
 10
11.666
 20
39.8784
 11
11.8186
 21
39.65
  0
LINE
  8
0
 10
11.8186
 20
39.65
 11
11.9401
 21
39.4036
  0
LINE
  8
0
 10
11.9401
 20
39.4036
 11
12.0284
 21
39.1435
  0
LINE
  8
0
 10
12.0284
 20
39.1435
 11
12.082
 21
38.8741
  0
LINE
  8
0
 10
12.082
 20
38.8741
 11
12.1
 21
38.6
  0
LINE
  8
0
 10
12.1
 20
38.6
 11
12.082
 21
38.3259
  0
LINE
  8
0
 10
12.082
 20
38.3259
 11
12.0284
 21
38.0565
  0
LINE
  8
0
 10
12.0284
 20
38.0565
 11
11.9401
 21
37.7964
  0
LINE
  8
0
 10
11.9401
 20
37.7964
 11
11.8186
 21
37.55
  0
LINE
  8
0
 10
11.8186
 20
37.55
 11
11.666
 21
37.3216
  0
LINE
  8
0
 10
11.666
 20
37.3216
 11
11.4849
 21
37.1151
  0
LINE
  8
0
 10
11.4849
 20
37.1151
 11
11.2784
 21
36.9339
  0
LINE
  8
0
 10
11.2784
 20
36.9339
 11
11.05
 21
36.7813
  0
LINE
  8
0
 10
11.05
 20
36.7813
 11
10.8036
 21
36.6599
  0
LINE
  8
0
 10
10.8036
 20
36.6599
 11
10.5435
 21
36.5715
  0
LINE
  8
0
 10
10.5435
 20
36.5715
 11
10.2741
 21
36.518
  0
LINE
  8
0
 10
10.2741
 20
36.518
 11
10
 21
36.5
  0
LINE
  8
0
 10
10
 20
36.5
 11
6.5
 21
36.5
  0
LINE
  8
0
 10
6.5
 20
36.5
 11
6.5
 21
1.5
  0
LINE
  8
0
 10
6.5
 20
1.5
 11
6.50856
 21
1.36948
  0
LINE
  8
0
 10
6.50856
 20
1.36948
 11
6.53407
 21
1.24118
  0
LINE
  8
0
 10
6.53407
 20
1.24118
 11
6.57613
 21
1.11731
  0
LINE
  8
0
 10
6.57613
 20
1.11731
 11
6.63397
 21
1
  0
LINE
  8
0
 10
6.63397
 20
1
 11
6.70665
 21
0.891235
  0
LINE
  8
0
 10
6.70665
 20
0.891235
 11
6.79289
 21
0.792892
  0
LINE
  8
0
 10
6.79289
 20
0.792892
 11
6.89124
 21
0.70665
  0
LINE
  8
0
 10
6.89124
 20
0.70665
 11
7
 21
0.633972
  0
LINE
  8
0
 10
7
 20
0.633972
 11
7.11731
 21
0.576126
  0
LINE
  8
0
 10
7.11731
 20
0.576126
 11
7.24118
 21
0.534073
  0
LINE
  8
0
 10
7.24118
 20
0.534073
 11
7.36948
 21
0.50856
  0
LINE
  8
0
 10
7.36948
 20
0.50856
 11
7.5
 21
0.5
  0
LINE
  8
0
 10
7.5
 20
0.5
 11
290.5
 21
0.5
  0
LINE
  8
0
 10
290.5
 20
0.5
 11
290.631
 21
0.50856
  0
LINE
  8
0
 10
27.7
 20
78.9
 11
27.7
 21
92.9
  0
LINE
  8
0
 10
27.7
 20
92.9
 11
41.7
 21
92.9
  0
LINE
  8
0
 10
41.7
 20
92.9
 11
41.7
 21
78.9
  0
LINE
  8
0
 10
41.7
 20
78.9
 11
27.7
 21
78.9
  0
LINE
  8
0
 10
46.75
 20
78.9
 11
46.75
 21
92.9
  0
LINE
  8
0
 10
46.75
 20
92.9
 11
60.75
 21
92.9
  0
LINE
  8
0
 10
60.75
 20
92.9
 11
60.75
 21
78.9
  0
LINE
  8
0
 10
60.75
 20
78.9
 11
46.75
 21
78.9
  0
LINE
  8
0
 10
65.8
 20
78.9
 11
65.8
 21
92.9
  0
LINE
  8
0
 10
65.8
 20
92.9
 11
79.8
 21
92.9
  0
LINE
  8
0
 10
79.8
 20
92.9
 11
79.8
 21
78.9
  0
LINE
  8
0
 10
79.8
 20
78.9
 11
65.8
 21
78.9
  0
LINE
  8
0
 10
84.85
 20
78.9
 11
84.85
 21
92.9
  0
LINE
  8
0
 10
84.85
 20
92.9
 11
98.85
 21
92.9
  0
LINE
  8
0
 10
98.85
 20
92.9
 11
98.85
 21
78.9
  0
LINE
  8
0
 10
98.85
 20
78.9
 11
84.85
 21
78.9
  0
LINE
  8
0
 10
103.9
 20
78.9
 11
103.9
 21
92.9
  0
LINE
  8
0
 10
103.9
 20
92.9
 11
117.9
 21
92.9
  0
LINE
  8
0
 10
117.9
 20
92.9
 11
117.9
 21
78.9
  0
LINE
  8
0
 10
117.9
 20
78.9
 11
103.9
 21
78.9
  0
LINE
  8
0
 10
122.95
 20
78.9
 11
122.95
 21
92.9
  0
LINE
  8
0
 10
122.95
 20
92.9
 11
136.95
 21
92.9
  0
LINE
  8
0
 10
136.95
 20
92.9
 11
136.95
 21
78.9
  0
LINE
  8
0
 10
136.95
 20
78.9
 11
122.95
 21
78.9
  0
LINE
  8
0
 10
142
 20
78.9
 11
142
 21
92.9
  0
LINE
  8
0
 10
142
 20
92.9
 11
156
 21
92.9
  0
LINE
  8
0
 10
156
 20
92.9
 11
156
 21
78.9
  0
LINE
  8
0
 10
156
 20
78.9
 11
142
 21
78.9
  0
LINE
  8
0
 10
180.1
 20
78.9
 11
180.1
 21
92.9
  0
LINE
  8
0
 10
180.1
 20
92.9
 11
194.1
 21
92.9
  0
LINE
  8
0
 10
194.1
 20
92.9
 11
194.1
 21
78.9
  0
LINE
  8
0
 10
194.1
 20
78.9
 11
180.1
 21
78.9
  0
LINE
  8
0
 10
199.15
 20
78.9
 11
199.15
 21
92.9
  0
LINE
  8
0
 10
199.15
 20
92.9
 11
213.15
 21
92.9
  0
LINE
  8
0
 10
213.15
 20
92.9
 11
213.15
 21
78.9
  0
LINE
  8
0
 10
213.15
 20
78.9
 11
199.15
 21
78.9
  0
LINE
  8
0
 10
218.2
 20
78.9
 11
218.2
 21
92.9
  0
LINE
  8
0
 10
218.2
 20
92.9
 11
232.2
 21
92.9
  0
LINE
  8
0
 10
232.2
 20
92.9
 11
232.2
 21
78.9
  0
LINE
  8
0
 10
232.2
 20
78.9
 11
218.2
 21
78.9
  0
LINE
  8
0
 10
237.25
 20
78.9
 11
237.25
 21
92.9
  0
LINE
  8
0
 10
237.25
 20
92.9
 11
251.25
 21
92.9
  0
LINE
  8
0
 10
251.25
 20
92.9
 11
251.25
 21
78.9
  0
LINE
  8
0
 10
251.25
 20
78.9
 11
237.25
 21
78.9
  0
LINE
  8
0
 10
265.825
 20
78.9
 11
265.825
 21
92.9
  0
LINE
  8
0
 10
265.825
 20
92.9
 11
279.825
 21
92.9
  0
LINE
  8
0
 10
279.825
 20
92.9
 11
279.825
 21
78.9
  0
LINE
  8
0
 10
279.825
 20
78.9
 11
265.825
 21
78.9
  0
LINE
  8
0
 10
8.64999
 20
78.9
 11
8.64999
 21
92.9
  0
LINE
  8
0
 10
8.64999
 20
92.9
 11
22.65
 21
92.9
  0
LINE
  8
0
 10
22.65
 20
92.9
 11
22.65
 21
78.9
  0
LINE
  8
0
 10
22.65
 20
78.9
 11
8.64999
 21
78.9
  0
LINE
  8
0
 10
161.05
 20
78.9
 11
161.05
 21
92.9
  0
LINE
  8
0
 10
161.05
 20
92.9
 11
175.05
 21
92.9
  0
LINE
  8
0
 10
175.05
 20
92.9
 11
175.05
 21
78.9
  0
LINE
  8
0
 10
175.05
 20
78.9
 11
161.05
 21
78.9
  0
LINE
  8
0
 10
257.387
 20
78.93
 11
257.387
 21
91.63
  0
LINE
  8
0
 10
257.387
 20
91.63
 11
264.387
 21
91.63
  0
LINE
  8
0
 10
264.387
 20
91.63
 11
264.387
 21
78.93
  0
LINE
  8
0
 10
264.387
 20
78.93
 11
257.387
 21
78.93
  0
LINE
  8
0
 10
281.263
 20
78.93
 11
281.263
 21
91.63
  0
LINE
  8
0
 10
281.263
 20
91.63
 11
288.263
 21
91.63
  0
LINE
  8
0
 10
288.263
 20
91.63
 11
288.263
 21
78.93
  0
LINE
  8
0
 10
288.263
 20
78.93
 11
281.263
 21
78.93
  0
LINE
  8
0
 10
170.575
 20
59.85
 11
170.575
 21
73.85
  0
LINE
  8
0
 10
170.575
 20
73.85
 11
184.575
 21
73.85
  0
LINE
  8
0
 10
184.575
 20
73.85
 11
184.575
 21
59.85
  0
LINE
  8
0
 10
184.575
 20
59.85
 11
170.575
 21
59.85
  0
LINE
  8
0
 10
13.4125
 20
59.85
 11
13.4125
 21
73.85
  0
LINE
  8
0
 10
13.4125
 20
73.85
 11
27.4125
 21
73.85
  0
LINE
  8
0
 10
27.4125
 20
73.85
 11
27.4125
 21
59.85
  0
LINE
  8
0
 10
27.4125
 20
59.85
 11
13.4125
 21
59.85
  0
LINE
  8
0
 10
37.225
 20
59.85
 11
37.225
 21
73.85
  0
LINE
  8
0
 10
37.225
 20
73.85
 11
51.225
 21
73.85
  0
LINE
  8
0
 10
51.225
 20
73.85
 11
51.225
 21
59.85
  0
LINE
  8
0
 10
51.225
 20
59.85
 11
37.225
 21
59.85
  0
LINE
  8
0
 10
75.325
 20
59.85
 11
75.325
 21
73.85
  0
LINE
  8
0
 10
75.325
 20
73.85
 11
89.325
 21
73.85
  0
LINE
  8
0
 10
89.325
 20
73.85
 11
89.325
 21
59.85
  0
LINE
  8
0
 10
89.325
 20
59.85
 11
75.325
 21
59.85
  0
LINE
  8
0
 10
94.375
 20
59.85
 11
94.375
 21
73.85
  0
LINE
  8
0
 10
94.375
 20
73.85
 11
108.375
 21
73.85
  0
LINE
  8
0
 10
108.375
 20
73.85
 11
108.375
 21
59.85
  0
LINE
  8
0
 10
108.375
 20
59.85
 11
94.375
 21
59.85
  0
LINE
  8
0
 10
113.425
 20
59.85
 11
113.425
 21
73.85
  0
LINE
  8
0
 10
113.425
 20
73.85
 11
127.425
 21
73.85
  0
LINE
  8
0
 10
127.425
 20
73.85
 11
127.425
 21
59.85
  0
LINE
  8
0
 10
127.425
 20
59.85
 11
113.425
 21
59.85
  0
LINE
  8
0
 10
132.475
 20
59.85
 11
132.475
 21
73.85
  0
LINE
  8
0
 10
132.475
 20
73.85
 11
146.475
 21
73.85
  0
LINE
  8
0
 10
146.475
 20
73.85
 11
146.475
 21
59.85
  0
LINE
  8
0
 10
146.475
 20
59.85
 11
132.475
 21
59.85
  0
LINE
  8
0
 10
151.525
 20
59.85
 11
151.525
 21
73.85
  0
LINE
  8
0
 10
151.525
 20
73.85
 11
165.525
 21
73.85
  0
LINE
  8
0
 10
165.525
 20
73.85
 11
165.525
 21
59.85
  0
LINE
  8
0
 10
165.525
 20
59.85
 11
151.525
 21
59.85
  0
LINE
  8
0
 10
189.625
 20
59.85
 11
189.625
 21
73.85
  0
LINE
  8
0
 10
189.625
 20
73.85
 11
203.625
 21
73.85
  0
LINE
  8
0
 10
203.625
 20
73.85
 11
203.625
 21
59.85
  0
LINE
  8
0
 10
203.625
 20
59.85
 11
189.625
 21
59.85
  0
LINE
  8
0
 10
208.675
 20
59.85
 11
208.675
 21
73.85
  0
LINE
  8
0
 10
208.675
 20
73.85
 11
222.675
 21
73.85
  0
LINE
  8
0
 10
222.675
 20
73.85
 11
222.675
 21
59.85
  0
LINE
  8
0
 10
222.675
 20
59.85
 11
208.675
 21
59.85
  0
LINE
  8
0
 10
227.725
 20
59.85
 11
227.725
 21
73.85
  0
LINE
  8
0
 10
227.725
 20
73.85
 11
241.725
 21
73.85
  0
LINE
  8
0
 10
241.725
 20
73.85
 11
241.725
 21
59.85
  0
LINE
  8
0
 10
241.725
 20
59.85
 11
227.725
 21
59.85
  0
LINE
  8
0
 10
246.775
 20
59.85
 11
246.775
 21
73.85
  0
LINE
  8
0
 10
246.775
 20
73.85
 11
260.775
 21
73.85
  0
LINE
  8
0
 10
260.775
 20
73.85
 11
260.775
 21
59.85
  0
LINE
  8
0
 10
260.775
 20
59.85
 11
246.775
 21
59.85
  0
LINE
  8
0
 10
270.587
 20
59.85
 11
270.587
 21
73.85
  0
LINE
  8
0
 10
270.587
 20
73.85
 11
284.587
 21
73.85
  0
LINE
  8
0
 10
284.587
 20
73.85
 11
284.587
 21
59.85
  0
LINE
  8
0
 10
284.587
 20
59.85
 11
270.587
 21
59.85
  0
LINE
  8
0
 10
56.275
 20
59.85
 11
56.275
 21
73.85
  0
LINE
  8
0
 10
56.275
 20
73.85
 11
70.275
 21
73.85
  0
LINE
  8
0
 10
70.275
 20
73.85
 11
70.275
 21
59.85
  0
LINE
  8
0
 10
70.275
 20
59.85
 11
56.275
 21
59.85
  0
LINE
  8
0
 10
266.25
 20
64.9197
 11
265.955
 21
64.9784
  0
LINE
  8
0
 10
265.955
 20
64.9784
 11
265.67
 21
65.0751
  0
LINE
  8
0
 10
265.67
 20
65.0751
 11
265.4
 21
65.2081
  0
LINE
  8
0
 10
265.4
 20
65.2081
 11
265.15
 21
65.3753
  0
LINE
  8
0
 10
265.15
 20
65.3753
 11
264.924
 21
65.5737
  0
LINE
  8
0
 10
264.924
 20
65.5737
 11
264.725
 21
65.7998
  0
LINE
  8
0
 10
264.725
 20
65.7998
 11
264.558
 21
66.05
  0
LINE
  8
0
 10
264.558
 20
66.05
 11
264.425
 21
66.3198
  0
LINE
  8
0
 10
264.425
 20
66.3198
 11
264.328
 21
66.6047
  0
LINE
  8
0
 10
264.328
 20
66.6047
 11
264.27
 21
66.8998
  0
LINE
  8
0
 10
264.27
 20
66.8998
 11
264.25
 21
67.2
  0
LINE
  8
0
 10
264.25
 20
67.2
 11
264.27
 21
67.5002
  0
LINE
  8
0
 10
264.27
 20
67.5002
 11
264.328
 21
67.7953
  0
LINE
  8
0
 10
264.328
 20
67.7953
 11
264.425
 21
68.0802
  0
LINE
  8
0
 10
264.425
 20
68.0802
 11
264.558
 21
68.35
  0
LINE
  8
0
 10
264.558
 20
68.35
 11
264.725
 21
68.6001
  0
LINE
  8
0
 10
264.725
 20
68.6001
 11
264.924
 21
68.8263
  0
LINE
  8
0
 10
264.924
 20
68.8263
 11
265.15
 21
69.0247
  0
LINE
  8
0
 10
265.15
 20
69.0247
 11
265.4
 21
69.1918
  0
LINE
  8
0
 10
265.4
 20
69.1918
 11
265.67
 21
69.3249
  0
LINE
  8
0
 10
265.67
 20
69.3249
 11
265.955
 21
69.4216
  0
LINE
  8
0
 10
265.955
 20
69.4216
 11
266.25
 21
69.4803
  0
LINE
  8
0
 10
266.25
 20
69.4803
 11
266.55
 21
69.5
  0
LINE
  8
0
 10
266.55
 20
69.5
 11
266.85
 21
69.4803
  0
LINE
  8
0
 10
266.85
 20
69.4803
 11
267.145
 21
69.4216
  0
LINE
  8
0
 10
267.145
 20
69.4216
 11
267.43
 21
69.3249
  0
LINE
  8
0
 10
267.43
 20
69.3249
 11
267.7
 21
69.1918
  0
LINE
  8
0
 10
267.7
 20
69.1918
 11
267.95
 21
69.0247
  0
LINE
  8
0
 10
267.95
 20
69.0247
 11
268.176
 21
68.8263
  0
LINE
  8
0
 10
268.176
 20
68.8263
 11
268.375
 21
68.6001
  0
LINE
  8
0
 10
268.375
 20
68.6001
 11
268.542
 21
68.35
  0
LINE
  8
0
 10
268.542
 20
68.35
 11
268.675
 21
68.0802
  0
LINE
  8
0
 10
268.675
 20
68.0802
 11
268.772
 21
67.7953
  0
LINE
  8
0
 10
268.772
 20
67.7953
 11
268.83
 21
67.5002
  0
LINE
  8
0
 10
268.83
 20
67.5002
 11
268.85
 21
67.2
  0
LINE
  8
0
 10
268.85
 20
67.2
 11
268.83
 21
66.8998
  0
LINE
  8
0
 10
268.83
 20
66.8998
 11
268.772
 21
66.6047
  0
LINE
  8
0
 10
268.772
 20
66.6047
 11
268.675
 21
66.3198
  0
LINE
  8
0
 10
268.675
 20
66.3198
 11
268.542
 21
66.05
  0
LINE
  8
0
 10
268.542
 20
66.05
 11
268.375
 21
65.7998
  0
LINE
  8
0
 10
268.375
 20
65.7998
 11
268.176
 21
65.5737
  0
LINE
  8
0
 10
268.176
 20
65.5737
 11
267.95
 21
65.3753
  0
LINE
  8
0
 10
267.95
 20
65.3753
 11
267.7
 21
65.2081
  0
LINE
  8
0
 10
267.7
 20
65.2081
 11
267.43
 21
65.0751
  0
LINE
  8
0
 10
267.43
 20
65.0751
 11
267.145
 21
64.9784
  0
LINE
  8
0
 10
267.145
 20
64.9784
 11
266.85
 21
64.9197
  0
LINE
  8
0
 10
266.85
 20
64.9197
 11
266.55
 21
64.9
  0
LINE
  8
0
 10
266.55
 20
64.9
 11
266.25
 21
64.9197
  0
LINE
  8
0
 10
31.3998
 20
64.9197
 11
31.1047
 21
64.9784
  0
LINE
  8
0
 10
31.1047
 20
64.9784
 11
30.8198
 21
65.0751
  0
LINE
  8
0
 10
30.8198
 20
65.0751
 11
30.55
 21
65.2081
  0
LINE
  8
0
 10
30.55
 20
65.2081
 11
30.2998
 21
65.3753
  0
LINE
  8
0
 10
30.2998
 20
65.3753
 11
30.0737
 21
65.5737
  0
LINE
  8
0
 10
30.0737
 20
65.5737
 11
29.8753
 21
65.7998
  0
LINE
  8
0
 10
29.8753
 20
65.7998
 11
29.7081
 21
66.05
  0
LINE
  8
0
 10
29.7081
 20
66.05
 11
29.5751
 21
66.3198
  0
LINE
  8
0
 10
29.5751
 20
66.3198
 11
29.4784
 21
66.6047
  0
LINE
  8
0
 10
29.4784
 20
66.6047
 11
29.4197
 21
66.8998
  0
LINE
  8
0
 10
29.4197
 20
66.8998
 11
29.4
 21
67.2
  0
LINE
  8
0
 10
29.4
 20
67.2
 11
29.4197
 21
67.5002
  0
LINE
  8
0
 10
29.4197
 20
67.5002
 11
29.4784
 21
67.7953
  0
LINE
  8
0
 10
29.4784
 20
67.7953
 11
29.5751
 21
68.0802
  0
LINE
  8
0
 10
29.5751
 20
68.0802
 11
29.7081
 21
68.35
  0
LINE
  8
0
 10
29.7081
 20
68.35
 11
29.8753
 21
68.6001
  0
LINE
  8
0
 10
29.8753
 20
68.6001
 11
30.0737
 21
68.8263
  0
LINE
  8
0
 10
30.0737
 20
68.8263
 11
30.2998
 21
69.0247
  0
LINE
  8
0
 10
30.2998
 20
69.0247
 11
30.55
 21
69.1918
  0
LINE
  8
0
 10
30.55
 20
69.1918
 11
30.8198
 21
69.3249
  0
LINE
  8
0
 10
30.8198
 20
69.3249
 11
31.1047
 21
69.4216
  0
LINE
  8
0
 10
31.1047
 20
69.4216
 11
31.3998
 21
69.4803
  0
LINE
  8
0
 10
31.3998
 20
69.4803
 11
31.7
 21
69.5
  0
LINE
  8
0
 10
31.7
 20
69.5
 11
32.0002
 21
69.4803
  0
LINE
  8
0
 10
32.0002
 20
69.4803
 11
32.2953
 21
69.4216
  0
LINE
  8
0
 10
32.2953
 20
69.4216
 11
32.5802
 21
69.3249
  0
LINE
  8
0
 10
32.5802
 20
69.3249
 11
32.85
 21
69.1918
  0
LINE
  8
0
 10
32.85
 20
69.1918
 11
33.1001
 21
69.0247
  0
LINE
  8
0
 10
33.1001
 20
69.0247
 11
33.3263
 21
68.8263
  0
LINE
  8
0
 10
33.3263
 20
68.8263
 11
33.5247
 21
68.6001
  0
LINE
  8
0
 10
33.5247
 20
68.6001
 11
33.6918
 21
68.35
  0
LINE
  8
0
 10
33.6918
 20
68.35
 11
33.8249
 21
68.0802
  0
LINE
  8
0
 10
33.8249
 20
68.0802
 11
33.9216
 21
67.7953
  0
LINE
  8
0
 10
33.9216
 20
67.7953
 11
33.9803
 21
67.5002
  0
LINE
  8
0
 10
33.9803
 20
67.5002
 11
34
 21
67.2
  0
LINE
  8
0
 10
34
 20
67.2
 11
33.9803
 21
66.8998
  0
LINE
  8
0
 10
33.9803
 20
66.8998
 11
33.9216
 21
66.6047
  0
LINE
  8
0
 10
33.9216
 20
66.6047
 11
33.8249
 21
66.3198
  0
LINE
  8
0
 10
33.8249
 20
66.3198
 11
33.6918
 21
66.05
  0
LINE
  8
0
 10
33.6918
 20
66.05
 11
33.5247
 21
65.7998
  0
LINE
  8
0
 10
33.5247
 20
65.7998
 11
33.3263
 21
65.5737
  0
LINE
  8
0
 10
33.3263
 20
65.5737
 11
33.1001
 21
65.3753
  0
LINE
  8
0
 10
33.1001
 20
65.3753
 11
32.85
 21
65.2081
  0
LINE
  8
0
 10
32.85
 20
65.2081
 11
32.5802
 21
65.0751
  0
LINE
  8
0
 10
32.5802
 20
65.0751
 11
32.2953
 21
64.9784
  0
LINE
  8
0
 10
32.2953
 20
64.9784
 11
32.0002
 21
64.9197
  0
LINE
  8
0
 10
32.0002
 20
64.9197
 11
31.7
 21
64.9
  0
LINE
  8
0
 10
31.7
 20
64.9
 11
31.3998
 21
64.9197
  0
LINE
  8
0
 10
118.188
 20
40.8
 11
118.188
 21
54.8
  0
LINE
  8
0
 10
118.188
 20
54.8
 11
132.188
 21
54.8
  0
LINE
  8
0
 10
132.188
 20
54.8
 11
132.188
 21
50.1
  0
LINE
  8
0
 10
132.188
 20
50.1
 11
137.237
 21
50.1
  0
LINE
  8
0
 10
137.237
 20
50.1
 11
137.237
 21
54.8
  0
LINE
  8
0
 10
137.237
 20
54.8
 11
151.237
 21
54.8
  0
LINE
  8
0
 10
151.237
 20
54.8
 11
151.237
 21
40.8
  0
LINE
  8
0
 10
151.237
 20
40.8
 11
137.237
 21
40.8
  0
LINE
  8
0
 10
137.237
 20
40.8
 11
137.237
 21
45.5
  0
LINE
  8
0
 10
137.237
 20
45.5
 11
132.188
 21
45.5
  0
LINE
  8
0
 10
132.188
 20
45.5
 11
132.188
 21
40.8
  0
LINE
  8
0
 10
132.188
 20
40.8
 11
118.188
 21
40.8
  0
LINE
  8
0
 10
15.7937
 20
40.8
 11
15.7937
 21
54.8
  0
LINE
  8
0
 10
15.7937
 20
54.8
 11
29.7937
 21
54.8
  0
LINE
  8
0
 10
29.7937
 20
54.8
 11
29.7937
 21
40.8
  0
LINE
  8
0
 10
29.7937
 20
40.8
 11
15.7937
 21
40.8
  0
LINE
  8
0
 10
41.9875
 20
40.8
 11
41.9875
 21
54.8
  0
LINE
  8
0
 10
41.9875
 20
54.8
 11
55.9875
 21
54.8
  0
LINE
  8
0
 10
55.9875
 20
54.8
 11
55.9875
 21
40.8
  0
LINE
  8
0
 10
55.9875
 20
40.8
 11
41.9875
 21
40.8
  0
LINE
  8
0
 10
61.0375
 20
40.8
 11
61.0375
 21
54.8
  0
LINE
  8
0
 10
61.0375
 20
54.8
 11
75.0375
 21
54.8
  0
LINE
  8
0
 10
75.0375
 20
54.8
 11
75.0375
 21
40.8
  0
LINE
  8
0
 10
75.0375
 20
40.8
 11
61.0375
 21
40.8
  0
LINE
  8
0
 10
80.0875
 20
40.8
 11
80.0875
 21
54.8
  0
LINE
  8
0
 10
80.0875
 20
54.8
 11
94.0875
 21
54.8
  0
LINE
  8
0
 10
94.0875
 20
54.8
 11
94.0875
 21
40.8
  0
LINE
  8
0
 10
94.0875
 20
40.8
 11
80.0875
 21
40.8
  0
LINE
  8
0
 10
156.287
 20
40.8
 11
156.287
 21
54.8
  0
LINE
  8
0
 10
156.287
 20
54.8
 11
170.287
 21
54.8
  0
LINE
  8
0
 10
170.287
 20
54.8
 11
170.287
 21
40.8
  0
LINE
  8
0
 10
170.287
 20
40.8
 11
156.287
 21
40.8
  0
LINE
  8
0
 10
263.444
 20
40.8
 11
263.444
 21
54.8
  0
LINE
  8
0
 10
263.444
 20
54.8
 11
277.444
 21
54.8
  0
LINE
  8
0
 10
277.444
 20
54.8
 11
277.444
 21
40.8
  0
LINE
  8
0
 10
277.444
 20
40.8
 11
263.444
 21
40.8
  0
LINE
  8
0
 10
99.1375
 20
40.8
 11
99.1375
 21
54.8
  0
LINE
  8
0
 10
99.1375
 20
54.8
 11
113.137
 21
54.8
  0
LINE
  8
0
 10
113.137
 20
54.8
 11
113.137
 21
40.8
  0
LINE
  8
0
 10
113.137
 20
40.8
 11
99.1375
 21
40.8
  0
LINE
  8
0
 10
232.487
 20
40.8
 11
232.487
 21
54.8
  0
LINE
  8
0
 10
232.487
 20
54.8
 11
246.487
 21
54.8
  0
LINE
  8
0
 10
246.487
 20
54.8
 11
246.487
 21
40.8
  0
LINE
  8
0
 10
246.487
 20
40.8
 11
232.487
 21
40.8
  0
LINE
  8
0
 10
175.337
 20
40.8
 11
175.337
 21
54.8
  0
LINE
  8
0
 10
175.337
 20
54.8
 11
189.337
 21
54.8
  0
LINE
  8
0
 10
189.337
 20
54.8
 11
189.337
 21
40.8
  0
LINE
  8
0
 10
189.337
 20
40.8
 11
175.337
 21
40.8
  0
LINE
  8
0
 10
194.387
 20
40.8
 11
194.387
 21
54.8
  0
LINE
  8
0
 10
194.387
 20
54.8
 11
208.387
 21
54.8
  0
LINE
  8
0
 10
208.387
 20
54.8
 11
208.387
 21
40.8
  0
LINE
  8
0
 10
208.387
 20
40.8
 11
194.387
 21
40.8
  0
LINE
  8
0
 10
213.438
 20
40.8
 11
213.438
 21
54.8
  0
LINE
  8
0
 10
213.438
 20
54.8
 11
227.438
 21
54.8
  0
LINE
  8
0
 10
227.438
 20
54.8
 11
227.438
 21
40.8
  0
LINE
  8
0
 10
227.438
 20
40.8
 11
213.438
 21
40.8
  0
LINE
  8
0
 10
255.006
 20
40.83
 11
255.006
 21
53.53
  0
LINE
  8
0
 10
255.006
 20
53.53
 11
262.006
 21
53.53
  0
LINE
  8
0
 10
262.006
 20
53.53
 11
262.006
 21
40.83
  0
LINE
  8
0
 10
262.006
 20
40.83
 11
255.006
 21
40.83
  0
LINE
  8
0
 10
278.882
 20
40.83
 11
278.882
 21
53.53
  0
LINE
  8
0
 10
278.882
 20
53.53
 11
285.882
 21
53.53
  0
LINE
  8
0
 10
285.882
 20
53.53
 11
285.882
 21
40.83
  0
LINE
  8
0
 10
285.882
 20
40.83
 11
278.882
 21
40.83
  0
LINE
  8
0
 10
89.6125
 20
21.75
 11
89.6125
 21
35.75
  0
LINE
  8
0
 10
89.6125
 20
35.75
 11
103.612
 21
35.75
  0
LINE
  8
0
 10
103.612
 20
35.75
 11
103.612
 21
21.75
  0
LINE
  8
0
 10
103.612
 20
21.75
 11
89.6125
 21
21.75
  0
LINE
  8
0
 10
108.662
 20
21.75
 11
108.662
 21
35.75
  0
LINE
  8
0
 10
108.662
 20
35.75
 11
122.662
 21
35.75
  0
LINE
  8
0
 10
122.662
 20
35.75
 11
122.662
 21
21.75
  0
LINE
  8
0
 10
122.662
 20
21.75
 11
108.662
 21
21.75
  0
LINE
  8
0
 10
20.5562
 20
21.75
 11
20.5562
 21
35.75
  0
LINE
  8
0
 10
20.5562
 20
35.75
 11
34.5562
 21
35.75
  0
LINE
  8
0
 10
34.5562
 20
35.75
 11
34.5562
 21
21.75
  0
LINE
  8
0
 10
34.5562
 20
21.75
 11
20.5562
 21
21.75
  0
LINE
  8
0
 10
51.5125
 20
21.75
 11
51.5125
 21
35.75
  0
LINE
  8
0
 10
51.5125
 20
35.75
 11
65.5125
 21
35.75
  0
LINE
  8
0
 10
65.5125
 20
35.75
 11
65.5125
 21
21.75
  0
LINE
  8
0
 10
65.5125
 20
21.75
 11
51.5125
 21
21.75
  0
LINE
  8
0
 10
70.5625
 20
21.75
 11
70.5625
 21
35.75
  0
LINE
  8
0
 10
70.5625
 20
35.75
 11
84.5625
 21
35.75
  0
LINE
  8
0
 10
84.5625
 20
35.75
 11
84.5625
 21
21.75
  0
LINE
  8
0
 10
84.5625
 20
21.75
 11
70.5625
 21
21.75
  0
LINE
  8
0
 10
127.712
 20
21.75
 11
127.712
 21
35.75
  0
LINE
  8
0
 10
127.712
 20
35.75
 11
141.712
 21
35.75
  0
LINE
  8
0
 10
141.712
 20
35.75
 11
141.712
 21
21.75
  0
LINE
  8
0
 10
141.712
 20
21.75
 11
127.712
 21
21.75
  0
LINE
  8
0
 10
146.762
 20
21.75
 11
146.762
 21
35.75
  0
LINE
  8
0
 10
146.762
 20
35.75
 11
160.762
 21
35.75
  0
LINE
  8
0
 10
160.762
 20
35.75
 11
160.762
 21
21.75
  0
LINE
  8
0
 10
160.762
 20
21.75
 11
146.762
 21
21.75
  0
LINE
  8
0
 10
184.862
 20
21.75
 11
184.862
 21
35.75
  0
LINE
  8
0
 10
184.862
 20
35.75
 11
198.862
 21
35.75
  0
LINE
  8
0
 10
198.862
 20
35.75
 11
198.862
 21
21.75
  0
LINE
  8
0
 10
198.862
 20
21.75
 11
184.862
 21
21.75
  0
LINE
  8
0
 10
203.912
 20
21.75
 11
203.912
 21
35.75
  0
LINE
  8
0
 10
203.912
 20
35.75
 11
217.912
 21
35.75
  0
LINE
  8
0
 10
217.912
 20
35.75
 11
217.912
 21
21.75
  0
LINE
  8
0
 10
217.912
 20
21.75
 11
203.912
 21
21.75
  0
LINE
  8
0
 10
222.962
 20
21.75
 11
222.962
 21
35.75
  0
LINE
  8
0
 10
222.962
 20
35.75
 11
236.962
 21
35.75
  0
LINE
  8
0
 10
236.962
 20
35.75
 11
236.962
 21
21.75
  0
LINE
  8
0
 10
236.962
 20
21.75
 11
222.962
 21
21.75
  0
LINE
  8
0
 10
258.681
 20
21.75
 11
258.681
 21
35.75
  0
LINE
  8
0
 10
258.681
 20
35.75
 11
272.681
 21
35.75
  0
LINE
  8
0
 10
272.681
 20
35.75
 11
272.681
 21
21.75
  0
LINE
  8
0
 10
272.681
 20
21.75
 11
258.681
 21
21.75
  0
LINE
  8
0
 10
165.812
 20
21.75
 11
165.812
 21
35.75
  0
LINE
  8
0
 10
165.812
 20
35.75
 11
179.812
 21
35.75
  0
LINE
  8
0
 10
179.812
 20
35.75
 11
179.812
 21
21.75
  0
LINE
  8
0
 10
179.812
 20
21.75
 11
165.812
 21
21.75
  0
LINE
  8
0
 10
35.9942
 20
21.78
 11
35.9942
 21
34.48
  0
LINE
  8
0
 10
35.9942
 20
34.48
 11
42.9942
 21
34.48
  0
LINE
  8
0
 10
42.9942
 20
34.48
 11
42.9942
 21
21.78
  0
LINE
  8
0
 10
42.9942
 20
21.78
 11
35.9942
 21
21.78
  0
LINE
  8
0
 10
274.119
 20
21.78
 11
274.119
 21
34.48
  0
LINE
  8
0
 10
274.119
 20
34.48
 11
281.119
 21
34.48
  0
LINE
  8
0
 10
281.119
 20
34.48
 11
281.119
 21
21.78
  0
LINE
  8
0
 10
281.119
 20
21.78
 11
274.119
 21
21.78
  0
LINE
  8
0
 10
250.243
 20
21.78
 11
250.243
 21
34.48
  0
LINE
  8
0
 10
250.243
 20
34.48
 11
257.243
 21
34.48
  0
LINE
  8
0
 10
257.243
 20
34.48
 11
257.243
 21
21.78
  0
LINE
  8
0
 10
257.243
 20
21.78
 11
250.243
 21
21.78
  0
LINE
  8
0
 10
12.1183
 20
21.78
 11
12.1183
 21
34.48
  0
LINE
  8
0
 10
12.1183
 20
34.48
 11
19.1183
 21
34.48
  0
LINE
  8
0
 10
19.1183
 20
34.48
 11
19.1183
 21
21.78
  0
LINE
  8
0
 10
19.1183
 20
21.78
 11
12.1183
 21
21.78
  0
LINE
  8
0
 10
225.344
 20
2.7
 11
225.344
 21
16.7
  0
LINE
  8
0
 10
225.344
 20
16.7
 11
239.344
 21
16.7
  0
LINE
  8
0
 10
239.344
 20
16.7
 11
239.344
 21
2.7
  0
LINE
  8
0
 10
239.344
 20
2.7
 11
225.344
 21
2.7
  0
LINE
  8
0
 10
201.531
 20
2.7
 11
201.531
 21
16.7
  0
LINE
  8
0
 10
201.531
 20
16.7
 11
215.531
 21
16.7
  0
LINE
  8
0
 10
215.531
 20
16.7
 11
215.531
 21
2.7
  0
LINE
  8
0
 10
215.531
 20
2.7
 11
201.531
 21
2.7
  0
LINE
  8
0
 10
130.094
 20
2.7
 11
130.094
 21
16.7
  0
LINE
  8
0
 10
130.094
 20
16.7
 11
144.094
 21
16.7
  0
LINE
  8
0
 10
144.094
 20
16.7
 11
144.094
 21
2.7
  0
LINE
  8
0
 10
144.094
 20
2.7
 11
130.094
 21
2.7
  0
LINE
  8
0
 10
58.6562
 20
2.7
 11
58.6562
 21
16.7
  0
LINE
  8
0
 10
58.6562
 20
16.7
 11
72.6562
 21
16.7
  0
LINE
  8
0
 10
72.6562
 20
16.7
 11
72.6562
 21
2.7
  0
LINE
  8
0
 10
72.6562
 20
2.7
 11
58.6562
 21
2.7
  0
LINE
  8
0
 10
34.8438
 20
2.7
 11
34.8438
 21
16.7
  0
LINE
  8
0
 10
34.8438
 20
16.7
 11
48.8438
 21
16.7
  0
LINE
  8
0
 10
48.8438
 20
16.7
 11
48.8438
 21
2.7
  0
LINE
  8
0
 10
48.8438
 20
2.7
 11
34.8438
 21
2.7
  0
LINE
  8
0
 10
11.0312
 20
2.7
 11
11.0312
 21
16.7
  0
LINE
  8
0
 10
11.0312
 20
16.7
 11
25.0312
 21
16.7
  0
LINE
  8
0
 10
25.0312
 20
16.7
 11
25.0312
 21
2.7
  0
LINE
  8
0
 10
25.0312
 20
2.7
 11
11.0312
 21
2.7
  0
LINE
  8
0
 10
249.156
 20
2.7
 11
249.156
 21
16.7
  0
LINE
  8
0
 10
249.156
 20
16.7
 11
263.156
 21
16.7
  0
LINE
  8
0
 10
263.156
 20
16.7
 11
263.156
 21
2.7
  0
LINE
  8
0
 10
263.156
 20
2.7
 11
249.156
 21
2.7
  0
LINE
  8
0
 10
272.969
 20
2.7
 11
272.969
 21
16.7
  0
LINE
  8
0
 10
272.969
 20
16.7
 11
286.969
 21
16.7
  0
LINE
  8
0
 10
286.969
 20
16.7
 11
286.969
 21
2.7
  0
LINE
  8
0
 10
286.969
 20
2.7
 11
272.969
 21
2.7
  0
LINE
  8
0
 10
83.5938
 20
2.73001
 11
83.5938
 21
15.43
  0
LINE
  8
0
 10
83.5938
 20
15.43
 11
90.5938
 21
15.43
  0
LINE
  8
0
 10
90.5938
 20
15.43
 11
90.5938
 21
2.73001
  0
LINE
  8
0
 10
90.5938
 20
2.73001
 11
83.5938
 21
2.73001
  0
LINE
  8
0
 10
183.594
 20
2.73001
 11
183.594
 21
15.43
  0
LINE
  8
0
 10
183.594
 20
15.43
 11
190.594
 21
15.43
  0
LINE
  8
0
 10
190.594
 20
15.43
 11
190.594
 21
2.73001
  0
LINE
  8
0
 10
190.594
 20
2.73001
 11
183.594
 21
2.73001
  0
LINE
  8
0
 10
196.7
 20
7.61967
 11
196.405
 21
7.67836
  0
LINE
  8
0
 10
196.405
 20
7.67836
 11
196.12
 21
7.77507
  0
LINE
  8
0
 10
196.12
 20
7.77507
 11
195.85
 21
7.90813
  0
LINE
  8
0
 10
195.85
 20
7.90813
 11
195.6
 21
8.07529
  0
LINE
  8
0
 10
195.6
 20
8.07529
 11
195.374
 21
8.27365
  0
LINE
  8
0
 10
195.374
 20
8.27365
 11
195.175
 21
8.49985
  0
LINE
  8
0
 10
195.175
 20
8.49985
 11
195.008
 21
8.74998
  0
LINE
  8
0
 10
195.008
 20
8.74998
 11
194.875
 21
9.01982
  0
LINE
  8
0
 10
194.875
 20
9.01982
 11
194.778
 21
9.3047
  0
LINE
  8
0
 10
194.778
 20
9.3047
 11
194.72
 21
9.59978
  0
LINE
  8
0
 10
194.72
 20
9.59978
 11
194.7
 21
9.89999
  0
LINE
  8
0
 10
194.7
 20
9.89999
 11
194.72
 21
10.2002
  0
LINE
  8
0
 10
194.72
 20
10.2002
 11
194.778
 21
10.4953
  0
LINE
  8
0
 10
194.778
 20
10.4953
 11
194.875
 21
10.7802
  0
LINE
  8
0
 10
194.875
 20
10.7802
 11
195.008
 21
11.05
  0
LINE
  8
0
 10
195.008
 20
11.05
 11
195.175
 21
11.3001
  0
LINE
  8
0
 10
195.175
 20
11.3001
 11
195.374
 21
11.5263
  0
LINE
  8
0
 10
195.374
 20
11.5263
 11
195.6
 21
11.7247
  0
LINE
  8
0
 10
195.6
 20
11.7247
 11
195.85
 21
11.8918
  0
LINE
  8
0
 10
195.85
 20
11.8918
 11
196.12
 21
12.0249
  0
LINE
  8
0
 10
196.12
 20
12.0249
 11
196.405
 21
12.1216
  0
LINE
  8
0
 10
196.405
 20
12.1216
 11
196.7
 21
12.1803
  0
LINE
  8
0
 10
196.7
 20
12.1803
 11
197
 21
12.2
  0
LINE
  8
0
 10
197
 20
12.2
 11
197.3
 21
12.1803
  0
LINE
  8
0
 10
197.3
 20
12.1803
 11
197.595
 21
12.1216
  0
LINE
  8
0
 10
197.595
 20
12.1216
 11
197.88
 21
12.0249
  0
LINE
  8
0
 10
197.88
 20
12.0249
 11
198.15
 21
11.8918
  0
LINE
  8
0
 10
198.15
 20
11.8918
 11
198.4
 21
11.7247
  0
LINE
  8
0
 10
198.4
 20
11.7247
 11
198.626
 21
11.5263
  0
LINE
  8
0
 10
198.626
 20
11.5263
 11
198.825
 21
11.3001
  0
LINE
  8
0
 10
198.825
 20
11.3001
 11
198.992
 21
11.05
  0
LINE
  8
0
 10
198.992
 20
11.05
 11
199.125
 21
10.7802
  0
LINE
  8
0
 10
199.125
 20
10.7802
 11
199.222
 21
10.4953
  0
LINE
  8
0
 10
199.222
 20
10.4953
 11
199.28
 21
10.2002
  0
LINE
  8
0
 10
199.28
 20
10.2002
 11
199.3
 21
9.89999
  0
LINE
  8
0
 10
199.3
 20
9.89999
 11
199.28
 21
9.59978
  0
LINE
  8
0
 10
199.28
 20
9.59978
 11
199.222
 21
9.3047
  0
LINE
  8
0
 10
199.222
 20
9.3047
 11
199.125
 21
9.01982
  0
LINE
  8
0
 10
199.125
 20
9.01982
 11
198.992
 21
8.74998
  0
LINE
  8
0
 10
198.992
 20
8.74998
 11
198.825
 21
8.49985
  0
LINE
  8
0
 10
198.825
 20
8.49985
 11
198.626
 21
8.27365
  0
LINE
  8
0
 10
198.626
 20
8.27365
 11
198.4
 21
8.07529
  0
LINE
  8
0
 10
198.4
 20
8.07529
 11
198.15
 21
7.90813
  0
LINE
  8
0
 10
198.15
 20
7.90813
 11
197.88
 21
7.77507
  0
LINE
  8
0
 10
197.88
 20
7.77507
 11
197.595
 21
7.67836
  0
LINE
  8
0
 10
197.595
 20
7.67836
 11
197.3
 21
7.61967
  0
LINE
  8
0
 10
197.3
 20
7.61967
 11
197
 21
7.59999
  0
LINE
  8
0
 10
197
 20
7.59999
 11
196.7
 21
7.61967
  0
ENDSEC
  0
SECTION
  2
OBJECTS
  0
DICTIONARY
  0
ENDSEC
  0
EOF
