  0
SECTION
  2
BLOCKS
  0
ENDSEC
  0
SECTION
  2
ENTITIES
  0
LINE
  8
0
 10
295.032
 20
0.753754
 11
295.064
 21
0.760071
  0
LINE
  8
0
 10
295.064
 20
0.760071
 11
295.095
 21
0.770508
  0
LINE
  8
0
 10
295.095
 20
0.770508
 11
295.124
 21
0.784897
  0
LINE
  8
0
 10
295.124
 20
0.784897
 11
295.151
 21
0.802917
  0
LINE
  8
0
 10
295.151
 20
0.802917
 11
295.176
 21
0.824371
  0
LINE
  8
0
 10
295.176
 20
0.824371
 11
295.197
 21
0.848816
  0
LINE
  8
0
 10
295.197
 20
0.848816
 11
295.215
 21
0.875778
  0
LINE
  8
0
 10
295.215
 20
0.875778
 11
295.229
 21
0.904953
  0
LINE
  8
0
 10
295.229
 20
0.904953
 11
295.24
 21
0.935699
  0
LINE
  8
0
 10
295.24
 20
0.935699
 11
295.246
 21
0.967529
  0
LINE
  8
0
 10
295.246
 20
0.967529
 11
295.25
 21
1.02466
  0
LINE
  8
0
 10
295.25
 20
1.02466
 11
295.25
 21
95.5753
  0
LINE
  8
0
 10
295.25
 20
95.5753
 11
295.246
 21
95.6325
  0
LINE
  8
0
 10
295.246
 20
95.6325
 11
295.24
 21
95.6643
  0
LINE
  8
0
 10
295.24
 20
95.6643
 11
295.229
 21
95.695
  0
LINE
  8
0
 10
295.229
 20
95.695
 11
295.215
 21
95.7242
  0
LINE
  8
0
 10
295.215
 20
95.7242
 11
295.197
 21
95.7512
  0
LINE
  8
0
 10
295.197
 20
95.7512
 11
295.176
 21
95.7756
  0
LINE
  8
0
 10
295.176
 20
95.7756
 11
295.151
 21
95.7971
  0
LINE
  8
0
 10
295.151
 20
95.7971
 11
295.124
 21
95.8151
  0
LINE
  8
0
 10
295.124
 20
95.8151
 11
295.095
 21
95.8295
  0
LINE
  8
0
 10
295.095
 20
95.8295
 11
295.064
 21
95.8399
  0
LINE
  8
0
 10
295.064
 20
95.8399
 11
295.032
 21
95.8462
  0
LINE
  8
0
 10
295.032
 20
95.8462
 11
294.975
 21
95.85
  0
LINE
  8
0
 10
294.975
 20
95.85
 11
74.2
 21
95.85
  0
LINE
  8
0
 10
74.2
 20
95.85
 11
74.2
 21
74.6
  0
LINE
  8
0
 10
74.2
 20
74.6
 11
14.2
 21
74.6
  0
LINE
  8
0
 10
14.2
 20
74.6
 11
14.2
 21
95.85
  0
LINE
  8
0
 10
14.2
 20
95.85
 11
10.0247
 21
95.85
  0
LINE
  8
0
 10
10.0247
 20
95.85
 11
9.96753
 21
95.8462
  0
LINE
  8
0
 10
9.96753
 20
95.8462
 11
9.9357
 21
95.8399
  0
LINE
  8
0
 10
9.9357
 20
95.8399
 11
9.90495
 21
95.8295
  0
LINE
  8
0
 10
9.90495
 20
95.8295
 11
9.87578
 21
95.8151
  0
LINE
  8
0
 10
9.87578
 20
95.8151
 11
9.84882
 21
95.7971
  0
LINE
  8
0
 10
9.84882
 20
95.7971
 11
9.82437
 21
95.7756
  0
LINE
  8
0
 10
9.82437
 20
95.7756
 11
9.80292
 21
95.7512
  0
LINE
  8
0
 10
9.80292
 20
95.7512
 11
9.7849
 21
95.7242
  0
LINE
  8
0
 10
9.7849
 20
95.7242
 11
9.77051
 21
95.695
  0
LINE
  8
0
 10
9.77051
 20
95.695
 11
9.76007
 21
95.6643
  0
LINE
  8
0
 10
9.76007
 20
95.6643
 11
9.75375
 21
95.6325
  0
LINE
  8
0
 10
9.75375
 20
95.6325
 11
9.75
 21
95.5753
  0
LINE
  8
0
 10
9.75
 20
95.5753
 11
9.75
 21
1.02466
  0
LINE
  8
0
 10
9.75
 20
1.02466
 11
9.75375
 21
0.967529
  0
LINE
  8
0
 10
9.75375
 20
0.967529
 11
9.76007
 21
0.935699
  0
LINE
  8
0
 10
9.76007
 20
0.935699
 11
9.77051
 21
0.904953
  0
LINE
  8
0
 10
9.77051
 20
0.904953
 11
9.7849
 21
0.875778
  0
LINE
  8
0
 10
9.7849
 20
0.875778
 11
9.80292
 21
0.848816
  0
LINE
  8
0
 10
9.80292
 20
0.848816
 11
9.82437
 21
0.824371
  0
LINE
  8
0
 10
9.82437
 20
0.824371
 11
9.84882
 21
0.802917
  0
LINE
  8
0
 10
9.84882
 20
0.802917
 11
9.87578
 21
0.784897
  0
LINE
  8
0
 10
9.87578
 20
0.784897
 11
9.90495
 21
0.770508
  0
LINE
  8
0
 10
9.90495
 20
0.770508
 11
9.9357
 21
0.760071
  0
LINE
  8
0
 10
9.9357
 20
0.760071
 11
9.96753
 21
0.753754
  0
LINE
  8
0
 10
9.96753
 20
0.753754
 11
10.0247
 21
0.75
  0
LINE
  8
0
 10
10.0247
 20
0.75
 11
294.975
 21
0.75
  0
LINE
  8
0
 10
294.975
 20
0.75
 11
295.032
 21
0.753754
  0
ENDSEC
  0
SECTION
  2
OBJECTS
  0
DICTIONARY
  0
ENDSEC
  0
EOF
