  0
SECTION
  2
BLOCKS
  0
ENDSEC
  0
SECTION
  2
ENTITIES
  0
LINE
  8
0
 10
71.4708
 20
-4.48717
 11
71.6632
 21
-4.44888
  0
LINE
  8
0
 10
71.6632
 20
-4.44888
 11
71.849
 21
-4.38582
  0
LINE
  8
0
 10
71.849
 20
-4.38582
 11
72.025
 21
-4.29906
  0
LINE
  8
0
 10
72.025
 20
-4.29906
 11
72.1881
 21
-4.19006
  0
LINE
  8
0
 10
72.1881
 20
-4.19006
 11
72.3356
 21
-4.06065
  0
LINE
  8
0
 10
72.3356
 20
-4.06065
 11
72.4651
 21
-3.9131
  0
LINE
  8
0
 10
72.4651
 20
-3.9131
 11
72.5741
 21
-3.74997
  0
LINE
  8
0
 10
72.5741
 20
-3.74997
 11
72.6608
 21
-3.57404
  0
LINE
  8
0
 10
72.6608
 20
-3.57404
 11
72.7239
 21
-3.38824
  0
LINE
  8
0
 10
72.7239
 20
-3.38824
 11
72.7622
 21
-3.19585
  0
LINE
  8
0
 10
72.7622
 20
-3.19585
 11
72.775
 21
-2.99994
  0
LINE
  8
0
 10
72.775
 20
-2.99994
 11
72.775
 21
0.199997
  0
LINE
  8
0
 10
72.775
 20
0.199997
 11
72.7818
 21
0.304413
  0
LINE
  8
0
 10
72.7818
 20
0.304413
 11
72.8023
 21
0.407059
  0
LINE
  8
0
 10
72.8023
 20
0.407059
 11
72.8359
 21
0.506149
  0
LINE
  8
0
 10
72.8359
 20
0.506149
 11
72.8822
 21
0.599991
  0
LINE
  8
0
 10
72.8822
 20
0.599991
 11
72.9403
 21
0.687012
  0
LINE
  8
0
 10
72.9403
 20
0.687012
 11
73.0093
 21
0.765686
  0
LINE
  8
0
 10
73.0093
 20
0.765686
 11
73.088
 21
0.834686
  0
LINE
  8
0
 10
73.088
 20
0.834686
 11
73.175
 21
0.892822
  0
LINE
  8
0
 10
73.175
 20
0.892822
 11
73.2688
 21
0.939102
  0
LINE
  8
0
 10
73.2688
 20
0.939102
 11
73.3679
 21
0.972733
  0
LINE
  8
0
 10
73.3679
 20
0.972733
 11
73.4706
 21
0.993149
  0
LINE
  8
0
 10
73.4706
 20
0.993149
 11
73.575
 21
1
  0
LINE
  8
0
 10
73.575
 20
1
 11
98.075
 21
1
  0
LINE
  8
0
 10
98.075
 20
1
 11
98.1794
 21
0.993149
  0
LINE
  8
0
 10
98.1794
 20
0.993149
 11
98.2821
 21
0.972733
  0
LINE
  8
0
 10
98.2821
 20
0.972733
 11
98.3811
 21
0.939102
  0
LINE
  8
0
 10
98.3811
 20
0.939102
 11
98.475
 21
0.892822
  0
LINE
  8
0
 10
98.475
 20
0.892822
 11
98.562
 21
0.834686
  0
LINE
  8
0
 10
98.562
 20
0.834686
 11
98.6407
 21
0.765686
  0
LINE
  8
0
 10
98.6407
 20
0.765686
 11
98.7097
 21
0.687012
  0
LINE
  8
0
 10
98.7097
 20
0.687012
 11
98.7678
 21
0.599991
  0
LINE
  8
0
 10
98.7678
 20
0.599991
 11
98.8141
 21
0.506149
  0
LINE
  8
0
 10
98.8141
 20
0.506149
 11
98.8477
 21
0.407059
  0
LINE
  8
0
 10
98.8477
 20
0.407059
 11
98.8681
 21
0.304413
  0
LINE
  8
0
 10
98.8681
 20
0.304413
 11
98.875
 21
0.199997
  0
LINE
  8
0
 10
98.875
 20
0.199997
 11
98.875
 21
-2.99994
  0
LINE
  8
0
 10
98.875
 20
-2.99994
 11
98.8878
 21
-3.19585
  0
LINE
  8
0
 10
98.8878
 20
-3.19585
 11
98.9261
 21
-3.38824
  0
LINE
  8
0
 10
98.9261
 20
-3.38824
 11
98.9892
 21
-3.57404
  0
LINE
  8
0
 10
98.9892
 20
-3.57404
 11
99.0759
 21
-3.74997
  0
LINE
  8
0
 10
99.0759
 20
-3.74997
 11
99.1849
 21
-3.9131
  0
LINE
  8
0
 10
99.1849
 20
-3.9131
 11
99.3143
 21
-4.06065
  0
LINE
  8
0
 10
99.3143
 20
-4.06065
 11
99.4619
 21
-4.19006
  0
LINE
  8
0
 10
99.4619
 20
-4.19006
 11
99.625
 21
-4.29906
  0
LINE
  8
0
 10
99.625
 20
-4.29906
 11
99.801
 21
-4.38582
  0
LINE
  8
0
 10
99.801
 20
-4.38582
 11
99.9868
 21
-4.44888
  0
LINE
  8
0
 10
99.9868
 20
-4.44888
 11
100.179
 21
-4.48717
  0
LINE
  8
0
 10
100.179
 20
-4.48717
 11
100.375
 21
-4.5
  0
LINE
  8
0
 10
100.375
 20
-4.5
 11
109.375
 21
-4.5
  0
LINE
  8
0
 10
109.375
 20
-4.5
 11
109.571
 21
-4.48717
  0
LINE
  8
0
 10
109.571
 20
-4.48717
 11
109.763
 21
-4.44888
  0
LINE
  8
0
 10
109.763
 20
-4.44888
 11
109.949
 21
-4.38582
  0
LINE
  8
0
 10
109.949
 20
-4.38582
 11
110.125
 21
-4.29906
  0
LINE
  8
0
 10
110.125
 20
-4.29906
 11
110.288
 21
-4.19006
  0
LINE
  8
0
 10
110.288
 20
-4.19006
 11
110.436
 21
-4.06065
  0
LINE
  8
0
 10
110.436
 20
-4.06065
 11
110.565
 21
-3.9131
  0
LINE
  8
0
 10
110.565
 20
-3.9131
 11
110.674
 21
-3.74997
  0
LINE
  8
0
 10
110.674
 20
-3.74997
 11
110.761
 21
-3.57404
  0
LINE
  8
0
 10
110.761
 20
-3.57404
 11
110.824
 21
-3.38824
  0
LINE
  8
0
 10
110.824
 20
-3.38824
 11
110.862
 21
-3.19585
  0
LINE
  8
0
 10
110.862
 20
-3.19585
 11
110.875
 21
-2.99994
  0
LINE
  8
0
 10
110.875
 20
-2.99994
 11
110.875
 21
0.199997
  0
LINE
  8
0
 10
110.875
 20
0.199997
 11
110.882
 21
0.304413
  0
LINE
  8
0
 10
110.882
 20
0.304413
 11
110.902
 21
0.407059
  0
LINE
  8
0
 10
110.902
 20
0.407059
 11
110.936
 21
0.506149
  0
LINE
  8
0
 10
110.936
 20
0.506149
 11
110.982
 21
0.599991
  0
LINE
  8
0
 10
110.982
 20
0.599991
 11
111.04
 21
0.687012
  0
LINE
  8
0
 10
111.04
 20
0.687012
 11
111.109
 21
0.765686
  0
LINE
  8
0
 10
111.109
 20
0.765686
 11
111.188
 21
0.834686
  0
LINE
  8
0
 10
111.188
 20
0.834686
 11
111.275
 21
0.892822
  0
LINE
  8
0
 10
111.275
 20
0.892822
 11
111.369
 21
0.939102
  0
LINE
  8
0
 10
111.369
 20
0.939102
 11
111.468
 21
0.972733
  0
LINE
  8
0
 10
111.468
 20
0.972733
 11
111.571
 21
0.993149
  0
LINE
  8
0
 10
111.571
 20
0.993149
 11
111.675
 21
1
  0
LINE
  8
0
 10
111.675
 20
1
 11
169.512
 21
1
  0
LINE
  8
0
 10
169.512
 20
1
 11
169.617
 21
0.993149
  0
LINE
  8
0
 10
169.617
 20
0.993149
 11
169.72
 21
0.972733
  0
LINE
  8
0
 10
169.72
 20
0.972733
 11
169.819
 21
0.939102
  0
LINE
  8
0
 10
169.819
 20
0.939102
 11
169.912
 21
0.892822
  0
LINE
  8
0
 10
169.912
 20
0.892822
 11
170
 21
0.834686
  0
LINE
  8
0
 10
170
 20
0.834686
 11
170.078
 21
0.765686
  0
LINE
  8
0
 10
170.078
 20
0.765686
 11
170.147
 21
0.687012
  0
LINE
  8
0
 10
170.147
 20
0.687012
 11
170.205
 21
0.599991
  0
LINE
  8
0
 10
170.205
 20
0.599991
 11
170.252
 21
0.506149
  0
LINE
  8
0
 10
170.252
 20
0.506149
 11
170.285
 21
0.407059
  0
LINE
  8
0
 10
170.285
 20
0.407059
 11
170.306
 21
0.304413
  0
LINE
  8
0
 10
170.306
 20
0.304413
 11
170.312
 21
0.199997
  0
LINE
  8
0
 10
170.312
 20
0.199997
 11
170.312
 21
-2.99994
  0
LINE
  8
0
 10
170.312
 20
-2.99994
 11
170.325
 21
-3.19585
  0
LINE
  8
0
 10
170.325
 20
-3.19585
 11
170.364
 21
-3.38824
  0
LINE
  8
0
 10
170.364
 20
-3.38824
 11
170.427
 21
-3.57404
  0
LINE
  8
0
 10
170.427
 20
-3.57404
 11
170.513
 21
-3.74997
  0
LINE
  8
0
 10
170.513
 20
-3.74997
 11
170.622
 21
-3.9131
  0
LINE
  8
0
 10
170.622
 20
-3.9131
 11
170.752
 21
-4.06065
  0
LINE
  8
0
 10
170.752
 20
-4.06065
 11
170.899
 21
-4.19006
  0
LINE
  8
0
 10
170.899
 20
-4.19006
 11
171.063
 21
-4.29906
  0
LINE
  8
0
 10
171.063
 20
-4.29906
 11
171.238
 21
-4.38582
  0
LINE
  8
0
 10
171.238
 20
-4.38582
 11
171.424
 21
-4.44888
  0
LINE
  8
0
 10
171.424
 20
-4.44888
 11
171.617
 21
-4.48717
  0
LINE
  8
0
 10
171.617
 20
-4.48717
 11
171.813
 21
-4.5
  0
LINE
  8
0
 10
171.813
 20
-4.5
 11
180.812
 21
-4.5
  0
LINE
  8
0
 10
180.812
 20
-4.5
 11
181.008
 21
-4.48717
  0
LINE
  8
0
 10
181.008
 20
-4.48717
 11
181.201
 21
-4.44888
  0
LINE
  8
0
 10
181.201
 20
-4.44888
 11
181.387
 21
-4.38582
  0
LINE
  8
0
 10
181.387
 20
-4.38582
 11
181.562
 21
-4.29906
  0
LINE
  8
0
 10
181.562
 20
-4.29906
 11
181.726
 21
-4.19006
  0
LINE
  8
0
 10
181.726
 20
-4.19006
 11
181.873
 21
-4.06065
  0
LINE
  8
0
 10
181.873
 20
-4.06065
 11
182.003
 21
-3.9131
  0
LINE
  8
0
 10
182.003
 20
-3.9131
 11
182.112
 21
-3.74997
  0
LINE
  8
0
 10
182.112
 20
-3.74997
 11
182.198
 21
-3.57404
  0
LINE
  8
0
 10
182.198
 20
-3.57404
 11
182.261
 21
-3.38824
  0
LINE
  8
0
 10
182.261
 20
-3.38824
 11
182.3
 21
-3.19585
  0
LINE
  8
0
 10
182.3
 20
-3.19585
 11
182.312
 21
-2.99994
  0
LINE
  8
0
 10
182.312
 20
-2.99994
 11
182.312
 21
0.199997
  0
LINE
  8
0
 10
182.312
 20
0.199997
 11
182.319
 21
0.304413
  0
LINE
  8
0
 10
182.319
 20
0.304413
 11
182.34
 21
0.407059
  0
LINE
  8
0
 10
182.34
 20
0.407059
 11
182.373
 21
0.506149
  0
LINE
  8
0
 10
182.373
 20
0.506149
 11
182.42
 21
0.599991
  0
LINE
  8
0
 10
182.42
 20
0.599991
 11
182.478
 21
0.687012
  0
LINE
  8
0
 10
182.478
 20
0.687012
 11
182.547
 21
0.765686
  0
LINE
  8
0
 10
182.547
 20
0.765686
 11
182.625
 21
0.834686
  0
LINE
  8
0
 10
182.625
 20
0.834686
 11
182.713
 21
0.892822
  0
LINE
  8
0
 10
182.713
 20
0.892822
 11
182.806
 21
0.939102
  0
LINE
  8
0
 10
182.806
 20
0.939102
 11
182.905
 21
0.972733
  0
LINE
  8
0
 10
182.905
 20
0.972733
 11
183.008
 21
0.993149
  0
LINE
  8
0
 10
183.008
 20
0.993149
 11
183.113
 21
1
  0
LINE
  8
0
 10
183.113
 20
1
 11
226.662
 21
1
  0
LINE
  8
0
 10
226.662
 20
1
 11
226.767
 21
0.993149
  0
LINE
  8
0
 10
226.767
 20
0.993149
 11
226.87
 21
0.972733
  0
LINE
  8
0
 10
226.87
 20
0.972733
 11
226.969
 21
0.939102
  0
LINE
  8
0
 10
226.969
 20
0.939102
 11
227.062
 21
0.892822
  0
LINE
  8
0
 10
227.062
 20
0.892822
 11
227.15
 21
0.834686
  0
LINE
  8
0
 10
227.15
 20
0.834686
 11
227.228
 21
0.765686
  0
LINE
  8
0
 10
227.228
 20
0.765686
 11
227.297
 21
0.687012
  0
LINE
  8
0
 10
227.297
 20
0.687012
 11
227.355
 21
0.599991
  0
LINE
  8
0
 10
227.355
 20
0.599991
 11
227.402
 21
0.506149
  0
LINE
  8
0
 10
227.402
 20
0.506149
 11
227.435
 21
0.407059
  0
LINE
  8
0
 10
227.435
 20
0.407059
 11
227.456
 21
0.304413
  0
LINE
  8
0
 10
227.456
 20
0.304413
 11
227.462
 21
0.199997
  0
LINE
  8
0
 10
227.462
 20
0.199997
 11
227.462
 21
-2.99994
  0
LINE
  8
0
 10
227.462
 20
-2.99994
 11
227.475
 21
-3.19585
  0
LINE
  8
0
 10
227.475
 20
-3.19585
 11
227.514
 21
-3.38824
  0
LINE
  8
0
 10
227.514
 20
-3.38824
 11
227.577
 21
-3.57404
  0
LINE
  8
0
 10
227.577
 20
-3.57404
 11
227.663
 21
-3.74997
  0
LINE
  8
0
 10
227.663
 20
-3.74997
 11
227.772
 21
-3.9131
  0
LINE
  8
0
 10
227.772
 20
-3.9131
 11
227.902
 21
-4.06065
  0
LINE
  8
0
 10
227.902
 20
-4.06065
 11
228.049
 21
-4.19006
  0
LINE
  8
0
 10
228.049
 20
-4.19006
 11
228.213
 21
-4.29906
  0
LINE
  8
0
 10
228.213
 20
-4.29906
 11
228.388
 21
-4.38582
  0
LINE
  8
0
 10
228.388
 20
-4.38582
 11
228.574
 21
-4.44888
  0
LINE
  8
0
 10
228.574
 20
-4.44888
 11
228.767
 21
-4.48717
  0
LINE
  8
0
 10
228.767
 20
-4.48717
 11
228.963
 21
-4.5
  0
LINE
  8
0
 10
228.963
 20
-4.5
 11
237.962
 21
-4.5
  0
LINE
  8
0
 10
237.962
 20
-4.5
 11
238.158
 21
-4.48717
  0
LINE
  8
0
 10
238.158
 20
-4.48717
 11
238.351
 21
-4.44888
  0
LINE
  8
0
 10
238.351
 20
-4.44888
 11
238.537
 21
-4.38582
  0
LINE
  8
0
 10
238.537
 20
-4.38582
 11
238.712
 21
-4.29906
  0
LINE
  8
0
 10
238.712
 20
-4.29906
 11
238.876
 21
-4.19006
  0
LINE
  8
0
 10
238.876
 20
-4.19006
 11
239.023
 21
-4.06065
  0
LINE
  8
0
 10
239.023
 20
-4.06065
 11
239.153
 21
-3.9131
  0
LINE
  8
0
 10
239.153
 20
-3.9131
 11
239.262
 21
-3.74997
  0
LINE
  8
0
 10
239.262
 20
-3.74997
 11
239.348
 21
-3.57404
  0
LINE
  8
0
 10
239.348
 20
-3.57404
 11
239.411
 21
-3.38824
  0
LINE
  8
0
 10
239.411
 20
-3.38824
 11
239.45
 21
-3.19585
  0
LINE
  8
0
 10
239.45
 20
-3.19585
 11
239.462
 21
-2.99994
  0
LINE
  8
0
 10
239.462
 20
-2.99994
 11
239.462
 21
0.199997
  0
LINE
  8
0
 10
239.462
 20
0.199997
 11
239.469
 21
0.304413
  0
LINE
  8
0
 10
239.469
 20
0.304413
 11
239.49
 21
0.407059
  0
LINE
  8
0
 10
239.49
 20
0.407059
 11
239.523
 21
0.506149
  0
LINE
  8
0
 10
239.523
 20
0.506149
 11
239.57
 21
0.599991
  0
LINE
  8
0
 10
239.57
 20
0.599991
 11
239.628
 21
0.687012
  0
LINE
  8
0
 10
239.628
 20
0.687012
 11
239.697
 21
0.765686
  0
LINE
  8
0
 10
239.697
 20
0.765686
 11
239.775
 21
0.834686
  0
LINE
  8
0
 10
239.775
 20
0.834686
 11
239.863
 21
0.892822
  0
LINE
  8
0
 10
239.863
 20
0.892822
 11
239.956
 21
0.939102
  0
LINE
  8
0
 10
239.956
 20
0.939102
 11
240.055
 21
0.972733
  0
LINE
  8
0
 10
240.055
 20
0.972733
 11
240.158
 21
0.993149
  0
LINE
  8
0
 10
240.158
 20
0.993149
 11
240.262
 21
1
  0
LINE
  8
0
 10
240.262
 20
1
 11
264.762
 21
1
  0
LINE
  8
0
 10
264.762
 20
1
 11
264.867
 21
0.993149
  0
LINE
  8
0
 10
264.867
 20
0.993149
 11
264.97
 21
0.972733
  0
LINE
  8
0
 10
264.97
 20
0.972733
 11
265.069
 21
0.939102
  0
LINE
  8
0
 10
265.069
 20
0.939102
 11
265.162
 21
0.892822
  0
LINE
  8
0
 10
265.162
 20
0.892822
 11
265.25
 21
0.834686
  0
LINE
  8
0
 10
265.25
 20
0.834686
 11
265.328
 21
0.765686
  0
LINE
  8
0
 10
265.328
 20
0.765686
 11
265.397
 21
0.687012
  0
LINE
  8
0
 10
265.397
 20
0.687012
 11
265.455
 21
0.599991
  0
LINE
  8
0
 10
265.455
 20
0.599991
 11
265.502
 21
0.506149
  0
LINE
  8
0
 10
265.502
 20
0.506149
 11
265.535
 21
0.407059
  0
LINE
  8
0
 10
265.535
 20
0.407059
 11
265.556
 21
0.304413
  0
LINE
  8
0
 10
265.556
 20
0.304413
 11
265.562
 21
0.199997
  0
LINE
  8
0
 10
265.562
 20
0.199997
 11
265.562
 21
-2.99994
  0
LINE
  8
0
 10
265.562
 20
-2.99994
 11
265.575
 21
-3.19585
  0
LINE
  8
0
 10
265.575
 20
-3.19585
 11
265.614
 21
-3.38824
  0
LINE
  8
0
 10
265.614
 20
-3.38824
 11
265.677
 21
-3.57404
  0
LINE
  8
0
 10
265.677
 20
-3.57404
 11
265.763
 21
-3.74997
  0
LINE
  8
0
 10
265.763
 20
-3.74997
 11
265.872
 21
-3.9131
  0
LINE
  8
0
 10
265.872
 20
-3.9131
 11
266.002
 21
-4.06065
  0
LINE
  8
0
 10
266.002
 20
-4.06065
 11
266.149
 21
-4.19006
  0
LINE
  8
0
 10
266.149
 20
-4.19006
 11
266.313
 21
-4.29906
  0
LINE
  8
0
 10
266.313
 20
-4.29906
 11
266.488
 21
-4.38582
  0
LINE
  8
0
 10
266.488
 20
-4.38582
 11
266.674
 21
-4.44888
  0
LINE
  8
0
 10
266.674
 20
-4.44888
 11
266.867
 21
-4.48717
  0
LINE
  8
0
 10
266.867
 20
-4.48717
 11
267.063
 21
-4.5
  0
LINE
  8
0
 10
267.063
 20
-4.5
 11
276.062
 21
-4.5
  0
LINE
  8
0
 10
276.062
 20
-4.5
 11
276.258
 21
-4.48717
  0
LINE
  8
0
 10
276.258
 20
-4.48717
 11
276.451
 21
-4.44888
  0
LINE
  8
0
 10
276.451
 20
-4.44888
 11
276.637
 21
-4.38582
  0
LINE
  8
0
 10
276.637
 20
-4.38582
 11
276.812
 21
-4.29906
  0
LINE
  8
0
 10
276.812
 20
-4.29906
 11
276.976
 21
-4.19006
  0
LINE
  8
0
 10
276.976
 20
-4.19006
 11
277.123
 21
-4.06065
  0
LINE
  8
0
 10
277.123
 20
-4.06065
 11
277.253
 21
-3.9131
  0
LINE
  8
0
 10
277.253
 20
-3.9131
 11
277.362
 21
-3.74997
  0
LINE
  8
0
 10
277.362
 20
-3.74997
 11
277.448
 21
-3.57404
  0
LINE
  8
0
 10
277.448
 20
-3.57404
 11
277.511
 21
-3.38824
  0
LINE
  8
0
 10
277.511
 20
-3.38824
 11
277.55
 21
-3.19585
  0
LINE
  8
0
 10
277.55
 20
-3.19585
 11
277.562
 21
-2.99994
  0
LINE
  8
0
 10
277.562
 20
-2.99994
 11
277.562
 21
0.199997
  0
LINE
  8
0
 10
277.562
 20
0.199997
 11
277.569
 21
0.304413
  0
LINE
  8
0
 10
277.569
 20
0.304413
 11
277.59
 21
0.407059
  0
LINE
  8
0
 10
277.59
 20
0.407059
 11
277.623
 21
0.506149
  0
LINE
  8
0
 10
277.623
 20
0.506149
 11
277.67
 21
0.599991
  0
LINE
  8
0
 10
277.67
 20
0.599991
 11
277.728
 21
0.687012
  0
LINE
  8
0
 10
277.728
 20
0.687012
 11
277.797
 21
0.765686
  0
LINE
  8
0
 10
277.797
 20
0.765686
 11
277.875
 21
0.834686
  0
LINE
  8
0
 10
277.875
 20
0.834686
 11
277.963
 21
0.892822
  0
LINE
  8
0
 10
277.963
 20
0.892822
 11
278.056
 21
0.939102
  0
LINE
  8
0
 10
278.056
 20
0.939102
 11
278.155
 21
0.972733
  0
LINE
  8
0
 10
278.155
 20
0.972733
 11
278.258
 21
0.993149
  0
LINE
  8
0
 10
278.258
 20
0.993149
 11
278.363
 21
1
  0
LINE
  8
0
 10
278.363
 20
1
 11
294
 21
1
  0
LINE
  8
0
 10
294
 20
1
 11
294.131
 21
1.00854
  0
LINE
  8
0
 10
294.131
 20
1.00854
 11
294.259
 21
1.03404
  0
LINE
  8
0
 10
294.259
 20
1.03404
 11
294.383
 21
1.07616
  0
LINE
  8
0
 10
294.383
 20
1.07616
 11
294.5
 21
1.13394
  0
LINE
  8
0
 10
294.5
 20
1.13394
 11
294.609
 21
1.20668
  0
LINE
  8
0
 10
294.609
 20
1.20668
 11
294.707
 21
1.29289
  0
LINE
  8
0
 10
294.707
 20
1.29289
 11
294.793
 21
1.3912
  0
LINE
  8
0
 10
294.793
 20
1.3912
 11
294.866
 21
1.50008
  0
LINE
  8
0
 10
294.866
 20
1.50008
 11
294.924
 21
1.61725
  0
LINE
  8
0
 10
294.924
 20
1.61725
 11
294.966
 21
1.74127
  0
LINE
  8
0
 10
294.966
 20
1.74127
 11
294.991
 21
1.86949
  0
LINE
  8
0
 10
294.991
 20
1.86949
 11
295
 21
1.99985
  0
LINE
  8
0
 10
295
 20
1.99985
 11
295
 21
41.5
  0
LINE
  8
0
 10
295
 20
41.5
 11
295.007
 21
41.6044
  0
LINE
  8
0
 10
295.007
 20
41.6044
 11
295.027
 21
41.707
  0
LINE
  8
0
 10
295.027
 20
41.707
 11
295.061
 21
41.8061
  0
LINE
  8
0
 10
295.061
 20
41.8061
 11
295.107
 21
41.9
  0
LINE
  8
0
 10
295.107
 20
41.9
 11
295.165
 21
41.987
  0
LINE
  8
0
 10
295.165
 20
41.987
 11
295.234
 21
42.0657
  0
LINE
  8
0
 10
295.234
 20
42.0657
 11
295.313
 21
42.1347
  0
LINE
  8
0
 10
295.313
 20
42.1347
 11
295.4
 21
42.1928
  0
LINE
  8
0
 10
295.4
 20
42.1928
 11
295.494
 21
42.2391
  0
LINE
  8
0
 10
295.494
 20
42.2391
 11
295.593
 21
42.2727
  0
LINE
  8
0
 10
295.593
 20
42.2727
 11
295.696
 21
42.2931
  0
LINE
  8
0
 10
295.696
 20
42.2931
 11
295.8
 21
42.3
  0
LINE
  8
0
 10
295.8
 20
42.3
 11
299
 21
42.3
  0
LINE
  8
0
 10
299
 20
42.3
 11
299.196
 21
42.3128
  0
LINE
  8
0
 10
299.196
 20
42.3128
 11
299.388
 21
42.3511
  0
LINE
  8
0
 10
299.388
 20
42.3511
 11
299.574
 21
42.4142
  0
LINE
  8
0
 10
299.574
 20
42.4142
 11
299.75
 21
42.5009
  0
LINE
  8
0
 10
299.75
 20
42.5009
 11
299.913
 21
42.6099
  0
LINE
  8
0
 10
299.913
 20
42.6099
 11
300.061
 21
42.7393
  0
LINE
  8
0
 10
300.061
 20
42.7393
 11
300.19
 21
42.8869
  0
LINE
  8
0
 10
300.19
 20
42.8869
 11
300.299
 21
43.05
  0
LINE
  8
0
 10
300.299
 20
43.05
 11
300.386
 21
43.226
  0
LINE
  8
0
 10
300.386
 20
43.226
 11
300.449
 21
43.4117
  0
LINE
  8
0
 10
300.449
 20
43.4117
 11
300.487
 21
43.6041
  0
LINE
  8
0
 10
300.487
 20
43.6041
 11
300.5
 21
43.8
  0
LINE
  8
0
 10
300.5
 20
43.8
 11
300.5
 21
52.7999
  0
LINE
  8
0
 10
300.5
 20
52.7999
 11
300.487
 21
52.9958
  0
LINE
  8
0
 10
300.487
 20
52.9958
 11
300.449
 21
53.1882
  0
LINE
  8
0
 10
300.449
 20
53.1882
 11
300.386
 21
53.374
  0
LINE
  8
0
 10
300.386
 20
53.374
 11
300.299
 21
53.55
  0
LINE
  8
0
 10
300.299
 20
53.55
 11
300.19
 21
53.7131
  0
LINE
  8
0
 10
300.19
 20
53.7131
 11
300.061
 21
53.8606
  0
LINE
  8
0
 10
300.061
 20
53.8606
 11
299.913
 21
53.9901
  0
LINE
  8
0
 10
299.913
 20
53.9901
 11
299.75
 21
54.099
  0
LINE
  8
0
 10
299.75
 20
54.099
 11
299.574
 21
54.1858
  0
LINE
  8
0
 10
299.574
 20
54.1858
 11
299.388
 21
54.2489
  0
LINE
  8
0
 10
299.388
 20
54.2489
 11
299.196
 21
54.2872
  0
LINE
  8
0
 10
299.196
 20
54.2872
 11
299
 21
54.3
  0
LINE
  8
0
 10
299
 20
54.3
 11
295.8
 21
54.3
  0
LINE
  8
0
 10
295.8
 20
54.3
 11
295.696
 21
54.3068
  0
LINE
  8
0
 10
295.696
 20
54.3068
 11
295.593
 21
54.3273
  0
LINE
  8
0
 10
295.593
 20
54.3273
 11
295.494
 21
54.3609
  0
LINE
  8
0
 10
295.494
 20
54.3609
 11
295.4
 21
54.4072
  0
LINE
  8
0
 10
295.4
 20
54.4072
 11
295.313
 21
54.4653
  0
LINE
  8
0
 10
295.313
 20
54.4653
 11
295.234
 21
54.5343
  0
LINE
  8
0
 10
295.234
 20
54.5343
 11
295.165
 21
54.613
  0
LINE
  8
0
 10
295.165
 20
54.613
 11
295.107
 21
54.7
  0
LINE
  8
0
 10
295.107
 20
54.7
 11
295.061
 21
54.7938
  0
LINE
  8
0
 10
295.061
 20
54.7938
 11
295.027
 21
54.8929
  0
LINE
  8
0
 10
295.027
 20
54.8929
 11
295.007
 21
54.9956
  0
LINE
  8
0
 10
295.007
 20
54.9956
 11
295
 21
55.1
  0
LINE
  8
0
 10
295
 20
55.1
 11
295
 21
94.6001
  0
LINE
  8
0
 10
295
 20
94.6001
 11
294.991
 21
94.7305
  0
LINE
  8
0
 10
294.991
 20
94.7305
 11
294.966
 21
94.8587
  0
LINE
  8
0
 10
294.966
 20
94.8587
 11
294.924
 21
94.9827
  0
LINE
  8
0
 10
294.924
 20
94.9827
 11
294.866
 21
95.0999
  0
LINE
  8
0
 10
294.866
 20
95.0999
 11
294.793
 21
95.2088
  0
LINE
  8
0
 10
294.793
 20
95.2088
 11
294.707
 21
95.3071
  0
LINE
  8
0
 10
294.707
 20
95.3071
 11
294.609
 21
95.3933
  0
LINE
  8
0
 10
294.609
 20
95.3933
 11
294.5
 21
95.466
  0
LINE
  8
0
 10
294.5
 20
95.466
 11
294.383
 21
95.5238
  0
LINE
  8
0
 10
294.383
 20
95.5238
 11
294.259
 21
95.5659
  0
LINE
  8
0
 10
294.259
 20
95.5659
 11
294.131
 21
95.5914
  0
LINE
  8
0
 10
294.131
 20
95.5914
 11
294
 21
95.6
  0
LINE
  8
0
 10
294
 20
95.6
 11
283.125
 21
95.6
  0
LINE
  8
0
 10
283.125
 20
95.6
 11
283.021
 21
95.6068
  0
LINE
  8
0
 10
283.021
 20
95.6068
 11
282.918
 21
95.6273
  0
LINE
  8
0
 10
282.918
 20
95.6273
 11
282.819
 21
95.6609
  0
LINE
  8
0
 10
282.819
 20
95.6609
 11
282.725
 21
95.7072
  0
LINE
  8
0
 10
282.725
 20
95.7072
 11
282.638
 21
95.7653
  0
LINE
  8
0
 10
282.638
 20
95.7653
 11
282.559
 21
95.8343
  0
LINE
  8
0
 10
282.559
 20
95.8343
 11
282.49
 21
95.913
  0
LINE
  8
0
 10
282.49
 20
95.913
 11
282.432
 21
96
  0
LINE
  8
0
 10
282.432
 20
96
 11
282.386
 21
96.0938
  0
LINE
  8
0
 10
282.386
 20
96.0938
 11
282.352
 21
96.1929
  0
LINE
  8
0
 10
282.352
 20
96.1929
 11
282.332
 21
96.2956
  0
LINE
  8
0
 10
282.332
 20
96.2956
 11
282.325
 21
96.4
  0
LINE
  8
0
 10
282.325
 20
96.4
 11
282.325
 21
99.5999
  0
LINE
  8
0
 10
282.325
 20
99.5999
 11
282.312
 21
99.7958
  0
LINE
  8
0
 10
282.312
 20
99.7958
 11
282.274
 21
99.9882
  0
LINE
  8
0
 10
282.274
 20
99.9882
 11
282.211
 21
100.174
  0
LINE
  8
0
 10
282.211
 20
100.174
 11
282.124
 21
100.35
  0
LINE
  8
0
 10
282.124
 20
100.35
 11
282.015
 21
100.513
  0
LINE
  8
0
 10
282.015
 20
100.513
 11
281.886
 21
100.661
  0
LINE
  8
0
 10
281.886
 20
100.661
 11
281.738
 21
100.79
  0
LINE
  8
0
 10
281.738
 20
100.79
 11
281.575
 21
100.899
  0
LINE
  8
0
 10
281.575
 20
100.899
 11
281.399
 21
100.986
  0
LINE
  8
0
 10
281.399
 20
100.986
 11
281.213
 21
101.049
  0
LINE
  8
0
 10
281.213
 20
101.049
 11
281.021
 21
101.087
  0
LINE
  8
0
 10
281.021
 20
101.087
 11
280.825
 21
101.1
  0
LINE
  8
0
 10
280.825
 20
101.1
 11
271.825
 21
101.1
  0
LINE
  8
0
 10
271.825
 20
101.1
 11
271.629
 21
101.087
  0
LINE
  8
0
 10
271.629
 20
101.087
 11
271.437
 21
101.049
  0
LINE
  8
0
 10
271.437
 20
101.049
 11
271.251
 21
100.986
  0
LINE
  8
0
 10
271.251
 20
100.986
 11
271.075
 21
100.899
  0
LINE
  8
0
 10
271.075
 20
100.899
 11
270.912
 21
100.79
  0
LINE
  8
0
 10
270.912
 20
100.79
 11
270.764
 21
100.661
  0
LINE
  8
0
 10
270.764
 20
100.661
 11
270.635
 21
100.513
  0
LINE
  8
0
 10
270.635
 20
100.513
 11
270.526
 21
100.35
  0
LINE
  8
0
 10
270.526
 20
100.35
 11
270.439
 21
100.174
  0
LINE
  8
0
 10
270.439
 20
100.174
 11
270.376
 21
99.9882
  0
LINE
  8
0
 10
270.376
 20
99.9882
 11
270.338
 21
99.7958
  0
LINE
  8
0
 10
270.338
 20
99.7958
 11
270.325
 21
99.5999
  0
LINE
  8
0
 10
270.325
 20
99.5999
 11
270.325
 21
96.4
  0
LINE
  8
0
 10
270.325
 20
96.4
 11
270.318
 21
96.2956
  0
LINE
  8
0
 10
270.318
 20
96.2956
 11
270.298
 21
96.1929
  0
LINE
  8
0
 10
270.298
 20
96.1929
 11
270.264
 21
96.0938
  0
LINE
  8
0
 10
270.264
 20
96.0938
 11
270.218
 21
96
  0
LINE
  8
0
 10
270.218
 20
96
 11
270.16
 21
95.913
  0
LINE
  8
0
 10
270.16
 20
95.913
 11
270.091
 21
95.8343
  0
LINE
  8
0
 10
270.091
 20
95.8343
 11
270.012
 21
95.7653
  0
LINE
  8
0
 10
270.012
 20
95.7653
 11
269.925
 21
95.7072
  0
LINE
  8
0
 10
269.925
 20
95.7072
 11
269.831
 21
95.6609
  0
LINE
  8
0
 10
269.831
 20
95.6609
 11
269.732
 21
95.6273
  0
LINE
  8
0
 10
269.732
 20
95.6273
 11
269.629
 21
95.6068
  0
LINE
  8
0
 10
269.629
 20
95.6068
 11
269.525
 21
95.6
  0
LINE
  8
0
 10
269.525
 20
95.6
 11
245.025
 21
95.6
  0
LINE
  8
0
 10
245.025
 20
95.6
 11
244.921
 21
95.6068
  0
LINE
  8
0
 10
244.921
 20
95.6068
 11
244.818
 21
95.6273
  0
LINE
  8
0
 10
244.818
 20
95.6273
 11
244.719
 21
95.6609
  0
LINE
  8
0
 10
244.719
 20
95.6609
 11
244.625
 21
95.7072
  0
LINE
  8
0
 10
244.625
 20
95.7072
 11
244.538
 21
95.7653
  0
LINE
  8
0
 10
244.538
 20
95.7653
 11
244.459
 21
95.8343
  0
LINE
  8
0
 10
244.459
 20
95.8343
 11
244.39
 21
95.913
  0
LINE
  8
0
 10
244.39
 20
95.913
 11
244.332
 21
96
  0
LINE
  8
0
 10
244.332
 20
96
 11
244.286
 21
96.0938
  0
LINE
  8
0
 10
244.286
 20
96.0938
 11
244.252
 21
96.1929
  0
LINE
  8
0
 10
244.252
 20
96.1929
 11
244.232
 21
96.2956
  0
LINE
  8
0
 10
244.232
 20
96.2956
 11
244.225
 21
96.4
  0
LINE
  8
0
 10
244.225
 20
96.4
 11
244.225
 21
99.5999
  0
LINE
  8
0
 10
244.225
 20
99.5999
 11
244.212
 21
99.7958
  0
LINE
  8
0
 10
244.212
 20
99.7958
 11
244.174
 21
99.9882
  0
LINE
  8
0
 10
244.174
 20
99.9882
 11
244.111
 21
100.174
  0
LINE
  8
0
 10
244.111
 20
100.174
 11
244.024
 21
100.35
  0
LINE
  8
0
 10
244.024
 20
100.35
 11
243.915
 21
100.513
  0
LINE
  8
0
 10
243.915
 20
100.513
 11
243.786
 21
100.661
  0
LINE
  8
0
 10
243.786
 20
100.661
 11
243.638
 21
100.79
  0
LINE
  8
0
 10
243.638
 20
100.79
 11
243.475
 21
100.899
  0
LINE
  8
0
 10
243.475
 20
100.899
 11
243.299
 21
100.986
  0
LINE
  8
0
 10
243.299
 20
100.986
 11
243.113
 21
101.049
  0
LINE
  8
0
 10
243.113
 20
101.049
 11
242.921
 21
101.087
  0
LINE
  8
0
 10
242.921
 20
101.087
 11
242.725
 21
101.1
  0
LINE
  8
0
 10
242.725
 20
101.1
 11
233.725
 21
101.1
  0
LINE
  8
0
 10
233.725
 20
101.1
 11
233.529
 21
101.087
  0
LINE
  8
0
 10
233.529
 20
101.087
 11
233.337
 21
101.049
  0
LINE
  8
0
 10
233.337
 20
101.049
 11
233.151
 21
100.986
  0
LINE
  8
0
 10
233.151
 20
100.986
 11
232.975
 21
100.899
  0
LINE
  8
0
 10
232.975
 20
100.899
 11
232.812
 21
100.79
  0
LINE
  8
0
 10
232.812
 20
100.79
 11
232.664
 21
100.661
  0
LINE
  8
0
 10
232.664
 20
100.661
 11
232.535
 21
100.513
  0
LINE
  8
0
 10
232.535
 20
100.513
 11
232.426
 21
100.35
  0
LINE
  8
0
 10
232.426
 20
100.35
 11
232.339
 21
100.174
  0
LINE
  8
0
 10
232.339
 20
100.174
 11
232.276
 21
99.9882
  0
LINE
  8
0
 10
232.276
 20
99.9882
 11
232.238
 21
99.7958
  0
LINE
  8
0
 10
232.238
 20
99.7958
 11
232.225
 21
99.5999
  0
LINE
  8
0
 10
232.225
 20
99.5999
 11
232.225
 21
96.4
  0
LINE
  8
0
 10
232.225
 20
96.4
 11
232.218
 21
96.2956
  0
LINE
  8
0
 10
232.218
 20
96.2956
 11
232.198
 21
96.1929
  0
LINE
  8
0
 10
232.198
 20
96.1929
 11
232.164
 21
96.0938
  0
LINE
  8
0
 10
232.164
 20
96.0938
 11
232.118
 21
96
  0
LINE
  8
0
 10
232.118
 20
96
 11
232.06
 21
95.913
  0
LINE
  8
0
 10
232.06
 20
95.913
 11
231.991
 21
95.8343
  0
LINE
  8
0
 10
231.991
 20
95.8343
 11
231.912
 21
95.7653
  0
LINE
  8
0
 10
231.912
 20
95.7653
 11
231.825
 21
95.7072
  0
LINE
  8
0
 10
231.825
 20
95.7072
 11
231.731
 21
95.6609
  0
LINE
  8
0
 10
231.731
 20
95.6609
 11
231.632
 21
95.6273
  0
LINE
  8
0
 10
231.632
 20
95.6273
 11
231.529
 21
95.6068
  0
LINE
  8
0
 10
231.529
 20
95.6068
 11
231.425
 21
95.6
  0
LINE
  8
0
 10
231.425
 20
95.6
 11
192.637
 21
95.6
  0
LINE
  8
0
 10
192.637
 20
95.6
 11
192.533
 21
95.6068
  0
LINE
  8
0
 10
192.533
 20
95.6068
 11
192.43
 21
95.6273
  0
LINE
  8
0
 10
192.43
 20
95.6273
 11
192.331
 21
95.6609
  0
LINE
  8
0
 10
192.331
 20
95.6609
 11
192.238
 21
95.7072
  0
LINE
  8
0
 10
192.238
 20
95.7072
 11
192.15
 21
95.7653
  0
LINE
  8
0
 10
192.15
 20
95.7653
 11
192.072
 21
95.8343
  0
LINE
  8
0
 10
192.072
 20
95.8343
 11
192.003
 21
95.913
  0
LINE
  8
0
 10
192.003
 20
95.913
 11
191.945
 21
96
  0
LINE
  8
0
 10
191.945
 20
96
 11
191.898
 21
96.0938
  0
LINE
  8
0
 10
191.898
 20
96.0938
 11
191.865
 21
96.1929
  0
LINE
  8
0
 10
191.865
 20
96.1929
 11
191.844
 21
96.2956
  0
LINE
  8
0
 10
191.844
 20
96.2956
 11
191.837
 21
96.4
  0
LINE
  8
0
 10
191.837
 20
96.4
 11
191.837
 21
99.5999
  0
LINE
  8
0
 10
191.837
 20
99.5999
 11
191.825
 21
99.7958
  0
LINE
  8
0
 10
191.825
 20
99.7958
 11
191.786
 21
99.9882
  0
LINE
  8
0
 10
191.786
 20
99.9882
 11
191.723
 21
100.174
  0
LINE
  8
0
 10
191.723
 20
100.174
 11
191.637
 21
100.35
  0
LINE
  8
0
 10
191.637
 20
100.35
 11
191.528
 21
100.513
  0
LINE
  8
0
 10
191.528
 20
100.513
 11
191.398
 21
100.661
  0
LINE
  8
0
 10
191.398
 20
100.661
 11
191.251
 21
100.79
  0
LINE
  8
0
 10
191.251
 20
100.79
 11
191.087
 21
100.899
  0
LINE
  8
0
 10
191.087
 20
100.899
 11
190.912
 21
100.986
  0
LINE
  8
0
 10
190.912
 20
100.986
 11
190.726
 21
101.049
  0
LINE
  8
0
 10
190.726
 20
101.049
 11
190.533
 21
101.087
  0
LINE
  8
0
 10
190.533
 20
101.087
 11
190.337
 21
101.1
  0
LINE
  8
0
 10
190.337
 20
101.1
 11
181.338
 21
101.1
  0
LINE
  8
0
 10
181.338
 20
101.1
 11
181.142
 21
101.087
  0
LINE
  8
0
 10
181.142
 20
101.087
 11
180.949
 21
101.049
  0
LINE
  8
0
 10
180.949
 20
101.049
 11
180.763
 21
100.986
  0
LINE
  8
0
 10
180.763
 20
100.986
 11
180.588
 21
100.899
  0
LINE
  8
0
 10
180.588
 20
100.899
 11
180.424
 21
100.79
  0
LINE
  8
0
 10
180.424
 20
100.79
 11
180.277
 21
100.661
  0
LINE
  8
0
 10
180.277
 20
100.661
 11
180.147
 21
100.513
  0
LINE
  8
0
 10
180.147
 20
100.513
 11
180.038
 21
100.35
  0
LINE
  8
0
 10
180.038
 20
100.35
 11
179.952
 21
100.174
  0
LINE
  8
0
 10
179.952
 20
100.174
 11
179.889
 21
99.9882
  0
LINE
  8
0
 10
179.889
 20
99.9882
 11
179.85
 21
99.7958
  0
LINE
  8
0
 10
179.85
 20
99.7958
 11
179.837
 21
99.5999
  0
LINE
  8
0
 10
179.837
 20
99.5999
 11
179.837
 21
96.4
  0
LINE
  8
0
 10
179.837
 20
96.4
 11
179.831
 21
96.2956
  0
LINE
  8
0
 10
179.831
 20
96.2956
 11
179.81
 21
96.1929
  0
LINE
  8
0
 10
179.81
 20
96.1929
 11
179.777
 21
96.0938
  0
LINE
  8
0
 10
179.777
 20
96.0938
 11
179.73
 21
96
  0
LINE
  8
0
 10
179.73
 20
96
 11
179.672
 21
95.913
  0
LINE
  8
0
 10
179.672
 20
95.913
 11
179.603
 21
95.8343
  0
LINE
  8
0
 10
179.603
 20
95.8343
 11
179.525
 21
95.7653
  0
LINE
  8
0
 10
179.525
 20
95.7653
 11
179.437
 21
95.7072
  0
LINE
  8
0
 10
179.437
 20
95.7072
 11
179.344
 21
95.6609
  0
LINE
  8
0
 10
179.344
 20
95.6609
 11
179.245
 21
95.6273
  0
LINE
  8
0
 10
179.245
 20
95.6273
 11
179.142
 21
95.6068
  0
LINE
  8
0
 10
179.142
 20
95.6068
 11
179.037
 21
95.6
  0
LINE
  8
0
 10
179.037
 20
95.6
 11
135.488
 21
95.6
  0
LINE
  8
0
 10
135.488
 20
95.6
 11
135.383
 21
95.6068
  0
LINE
  8
0
 10
135.383
 20
95.6068
 11
135.28
 21
95.6273
  0
LINE
  8
0
 10
135.28
 20
95.6273
 11
135.181
 21
95.6609
  0
LINE
  8
0
 10
135.181
 20
95.6609
 11
135.088
 21
95.7072
  0
LINE
  8
0
 10
135.088
 20
95.7072
 11
135
 21
95.7653
  0
LINE
  8
0
 10
135
 20
95.7653
 11
134.922
 21
95.8343
  0
LINE
  8
0
 10
134.922
 20
95.8343
 11
134.853
 21
95.913
  0
LINE
  8
0
 10
134.853
 20
95.913
 11
134.795
 21
96
  0
LINE
  8
0
 10
134.795
 20
96
 11
134.748
 21
96.0938
  0
LINE
  8
0
 10
134.748
 20
96.0938
 11
134.715
 21
96.1929
  0
LINE
  8
0
 10
134.715
 20
96.1929
 11
134.694
 21
96.2956
  0
LINE
  8
0
 10
134.694
 20
96.2956
 11
134.688
 21
96.4
  0
LINE
  8
0
 10
134.688
 20
96.4
 11
134.688
 21
99.5999
  0
LINE
  8
0
 10
134.688
 20
99.5999
 11
134.675
 21
99.7958
  0
LINE
  8
0
 10
134.675
 20
99.7958
 11
134.636
 21
99.9882
  0
LINE
  8
0
 10
134.636
 20
99.9882
 11
134.573
 21
100.174
  0
LINE
  8
0
 10
134.573
 20
100.174
 11
134.487
 21
100.35
  0
LINE
  8
0
 10
134.487
 20
100.35
 11
134.378
 21
100.513
  0
LINE
  8
0
 10
134.378
 20
100.513
 11
134.248
 21
100.661
  0
LINE
  8
0
 10
134.248
 20
100.661
 11
134.101
 21
100.79
  0
LINE
  8
0
 10
134.101
 20
100.79
 11
133.937
 21
100.899
  0
LINE
  8
0
 10
133.937
 20
100.899
 11
133.762
 21
100.986
  0
LINE
  8
0
 10
133.762
 20
100.986
 11
133.576
 21
101.049
  0
LINE
  8
0
 10
133.576
 20
101.049
 11
133.383
 21
101.087
  0
LINE
  8
0
 10
133.383
 20
101.087
 11
133.187
 21
101.1
  0
LINE
  8
0
 10
133.187
 20
101.1
 11
124.188
 21
101.1
  0
LINE
  8
0
 10
124.188
 20
101.1
 11
123.992
 21
101.087
  0
LINE
  8
0
 10
123.992
 20
101.087
 11
123.799
 21
101.049
  0
LINE
  8
0
 10
123.799
 20
101.049
 11
123.613
 21
100.986
  0
LINE
  8
0
 10
123.613
 20
100.986
 11
123.438
 21
100.899
  0
LINE
  8
0
 10
123.438
 20
100.899
 11
123.274
 21
100.79
  0
LINE
  8
0
 10
123.274
 20
100.79
 11
123.127
 21
100.661
  0
LINE
  8
0
 10
123.127
 20
100.661
 11
122.997
 21
100.513
  0
LINE
  8
0
 10
122.997
 20
100.513
 11
122.888
 21
100.35
  0
LINE
  8
0
 10
122.888
 20
100.35
 11
122.802
 21
100.174
  0
LINE
  8
0
 10
122.802
 20
100.174
 11
122.739
 21
99.9882
  0
LINE
  8
0
 10
122.739
 20
99.9882
 11
122.7
 21
99.7958
  0
LINE
  8
0
 10
122.7
 20
99.7958
 11
122.688
 21
99.5999
  0
LINE
  8
0
 10
122.688
 20
99.5999
 11
122.688
 21
96.4
  0
LINE
  8
0
 10
122.688
 20
96.4
 11
122.681
 21
96.2956
  0
LINE
  8
0
 10
122.681
 20
96.2956
 11
122.66
 21
96.1929
  0
LINE
  8
0
 10
122.66
 20
96.1929
 11
122.627
 21
96.0938
  0
LINE
  8
0
 10
122.627
 20
96.0938
 11
122.58
 21
96
  0
LINE
  8
0
 10
122.58
 20
96
 11
122.522
 21
95.913
  0
LINE
  8
0
 10
122.522
 20
95.913
 11
122.453
 21
95.8343
  0
LINE
  8
0
 10
122.453
 20
95.8343
 11
122.375
 21
95.7653
  0
LINE
  8
0
 10
122.375
 20
95.7653
 11
122.287
 21
95.7072
  0
LINE
  8
0
 10
122.287
 20
95.7072
 11
122.194
 21
95.6609
  0
LINE
  8
0
 10
122.194
 20
95.6609
 11
122.095
 21
95.6273
  0
LINE
  8
0
 10
122.095
 20
95.6273
 11
121.992
 21
95.6068
  0
LINE
  8
0
 10
121.992
 20
95.6068
 11
121.887
 21
95.6
  0
LINE
  8
0
 10
121.887
 20
95.6
 11
92.625
 21
95.6
  0
LINE
  8
0
 10
92.625
 20
95.6
 11
92.5206
 21
95.6068
  0
LINE
  8
0
 10
92.5206
 20
95.6068
 11
92.4179
 21
95.6273
  0
LINE
  8
0
 10
92.4179
 20
95.6273
 11
92.3188
 21
95.6609
  0
LINE
  8
0
 10
92.3188
 20
95.6609
 11
92.225
 21
95.7072
  0
LINE
  8
0
 10
92.225
 20
95.7072
 11
92.138
 21
95.7653
  0
LINE
  8
0
 10
92.138
 20
95.7653
 11
92.0593
 21
95.8343
  0
LINE
  8
0
 10
92.0593
 20
95.8343
 11
91.9903
 21
95.913
  0
LINE
  8
0
 10
91.9903
 20
95.913
 11
91.9322
 21
96
  0
LINE
  8
0
 10
91.9322
 20
96
 11
91.8859
 21
96.0938
  0
LINE
  8
0
 10
91.8859
 20
96.0938
 11
91.8523
 21
96.1929
  0
LINE
  8
0
 10
91.8523
 20
96.1929
 11
91.8318
 21
96.2956
  0
LINE
  8
0
 10
91.8318
 20
96.2956
 11
91.825
 21
96.4
  0
LINE
  8
0
 10
91.825
 20
96.4
 11
91.825
 21
99.5999
  0
LINE
  8
0
 10
91.825
 20
99.5999
 11
91.8122
 21
99.7958
  0
LINE
  8
0
 10
91.8122
 20
99.7958
 11
91.7739
 21
99.9882
  0
LINE
  8
0
 10
91.7739
 20
99.9882
 11
91.7108
 21
100.174
  0
LINE
  8
0
 10
91.7108
 20
100.174
 11
91.6241
 21
100.35
  0
LINE
  8
0
 10
91.6241
 20
100.35
 11
91.5151
 21
100.513
  0
LINE
  8
0
 10
91.5151
 20
100.513
 11
91.3857
 21
100.661
  0
LINE
  8
0
 10
91.3857
 20
100.661
 11
91.2381
 21
100.79
  0
LINE
  8
0
 10
91.2381
 20
100.79
 11
91.075
 21
100.899
  0
LINE
  8
0
 10
91.075
 20
100.899
 11
90.899
 21
100.986
  0
LINE
  8
0
 10
90.899
 20
100.986
 11
90.7132
 21
101.049
  0
LINE
  8
0
 10
90.7132
 20
101.049
 11
90.5208
 21
101.087
  0
LINE
  8
0
 10
90.5208
 20
101.087
 11
90.3249
 21
101.1
  0
LINE
  8
0
 10
90.3249
 20
101.1
 11
81.3251
 21
101.1
  0
LINE
  8
0
 10
81.3251
 20
101.1
 11
81.1292
 21
101.087
  0
LINE
  8
0
 10
81.1292
 20
101.087
 11
80.9368
 21
101.049
  0
LINE
  8
0
 10
80.9368
 20
101.049
 11
80.751
 21
100.986
  0
LINE
  8
0
 10
80.751
 20
100.986
 11
80.575
 21
100.899
  0
LINE
  8
0
 10
80.575
 20
100.899
 11
80.4119
 21
100.79
  0
LINE
  8
0
 10
80.4119
 20
100.79
 11
80.2643
 21
100.661
  0
LINE
  8
0
 10
80.2643
 20
100.661
 11
80.1349
 21
100.513
  0
LINE
  8
0
 10
80.1349
 20
100.513
 11
80.0259
 21
100.35
  0
LINE
  8
0
 10
80.0259
 20
100.35
 11
79.9392
 21
100.174
  0
LINE
  8
0
 10
79.9392
 20
100.174
 11
79.8761
 21
99.9882
  0
LINE
  8
0
 10
79.8761
 20
99.9882
 11
79.8378
 21
99.7958
  0
LINE
  8
0
 10
79.8378
 20
99.7958
 11
79.825
 21
99.5999
  0
LINE
  8
0
 10
79.825
 20
99.5999
 11
79.825
 21
96.4
  0
LINE
  8
0
 10
79.825
 20
96.4
 11
79.8181
 21
96.2956
  0
LINE
  8
0
 10
79.8181
 20
96.2956
 11
79.7977
 21
96.1929
  0
LINE
  8
0
 10
79.7977
 20
96.1929
 11
79.7641
 21
96.0938
  0
LINE
  8
0
 10
79.7641
 20
96.0938
 11
79.7178
 21
96
  0
LINE
  8
0
 10
79.7178
 20
96
 11
79.6597
 21
95.913
  0
LINE
  8
0
 10
79.6597
 20
95.913
 11
79.5907
 21
95.8343
  0
LINE
  8
0
 10
79.5907
 20
95.8343
 11
79.512
 21
95.7653
  0
LINE
  8
0
 10
79.512
 20
95.7653
 11
79.425
 21
95.7072
  0
LINE
  8
0
 10
79.425
 20
95.7072
 11
79.3311
 21
95.6609
  0
LINE
  8
0
 10
79.3311
 20
95.6609
 11
79.2321
 21
95.6273
  0
LINE
  8
0
 10
79.2321
 20
95.6273
 11
79.1294
 21
95.6068
  0
LINE
  8
0
 10
79.1294
 20
95.6068
 11
79.025
 21
95.6
  0
LINE
  8
0
 10
79.025
 20
95.6
 11
10.9998
 21
95.6
  0
LINE
  8
0
 10
10.9998
 20
95.6
 11
10.8695
 21
95.5914
  0
LINE
  8
0
 10
10.8695
 20
95.5914
 11
10.7413
 21
95.5659
  0
LINE
  8
0
 10
10.7413
 20
95.5659
 11
10.6172
 21
95.5238
  0
LINE
  8
0
 10
10.6172
 20
95.5238
 11
10.5001
 21
95.466
  0
LINE
  8
0
 10
10.5001
 20
95.466
 11
10.3912
 21
95.3933
  0
LINE
  8
0
 10
10.3912
 20
95.3933
 11
10.2929
 21
95.3071
  0
LINE
  8
0
 10
10.2929
 20
95.3071
 11
10.2067
 21
95.2088
  0
LINE
  8
0
 10
10.2067
 20
95.2088
 11
10.1339
 21
95.0999
  0
LINE
  8
0
 10
10.1339
 20
95.0999
 11
10.0762
 21
94.9827
  0
LINE
  8
0
 10
10.0762
 20
94.9827
 11
10.034
 21
94.8587
  0
LINE
  8
0
 10
10.034
 20
94.8587
 11
10.0085
 21
94.7305
  0
LINE
  8
0
 10
10.0085
 20
94.7305
 11
10
 21
94.6001
  0
LINE
  8
0
 10
10
 20
94.6001
 11
10
 21
55.1
  0
LINE
  8
0
 10
10
 20
55.1
 11
9.99315
 21
54.9956
  0
LINE
  8
0
 10
9.99315
 20
54.9956
 11
9.97273
 21
54.8929
  0
LINE
  8
0
 10
9.97273
 20
54.8929
 11
9.9391
 21
54.7938
  0
LINE
  8
0
 10
9.9391
 20
54.7938
 11
9.89282
 21
54.7
  0
LINE
  8
0
 10
9.89282
 20
54.7
 11
9.83469
 21
54.613
  0
LINE
  8
0
 10
9.83469
 20
54.613
 11
9.76569
 21
54.5343
  0
LINE
  8
0
 10
9.76569
 20
54.5343
 11
9.68701
 21
54.4653
  0
LINE
  8
0
 10
9.68701
 20
54.4653
 11
9.59999
 21
54.4072
  0
LINE
  8
0
 10
9.59999
 20
54.4072
 11
9.50615
 21
54.3609
  0
LINE
  8
0
 10
9.50615
 20
54.3609
 11
9.40706
 21
54.3273
  0
LINE
  8
0
 10
9.40706
 20
54.3273
 11
9.30441
 21
54.3068
  0
LINE
  8
0
 10
9.30441
 20
54.3068
 11
9.2
 21
54.3
  0
LINE
  8
0
 10
9.2
 20
54.3
 11
6.00006
 21
54.3
  0
LINE
  8
0
 10
6.00006
 20
54.3
 11
5.80415
 21
54.2872
  0
LINE
  8
0
 10
5.80415
 20
54.2872
 11
5.61176
 21
54.2489
  0
LINE
  8
0
 10
5.61176
 20
54.2489
 11
5.42596
 21
54.1858
  0
LINE
  8
0
 10
5.42596
 20
54.1858
 11
5.25003
 21
54.099
  0
LINE
  8
0
 10
5.25003
 20
54.099
 11
5.0869
 21
53.9901
  0
LINE
  8
0
 10
5.0869
 20
53.9901
 11
4.93935
 21
53.8606
  0
LINE
  8
0
 10
4.93935
 20
53.8606
 11
4.80994
 21
53.7131
  0
LINE
  8
0
 10
4.80994
 20
53.7131
 11
4.70094
 21
53.55
  0
LINE
  8
0
 10
4.70094
 20
53.55
 11
4.61418
 21
53.374
  0
LINE
  8
0
 10
4.61418
 20
53.374
 11
4.55112
 21
53.1882
  0
LINE
  8
0
 10
4.55112
 20
53.1882
 11
4.51283
 21
52.9958
  0
LINE
  8
0
 10
4.51283
 20
52.9958
 11
4.5
 21
52.7999
  0
LINE
  8
0
 10
4.5
 20
52.7999
 11
4.5
 21
43.8
  0
LINE
  8
0
 10
4.5
 20
43.8
 11
4.51283
 21
43.6041
  0
LINE
  8
0
 10
4.51283
 20
43.6041
 11
4.55112
 21
43.4117
  0
LINE
  8
0
 10
4.55112
 20
43.4117
 11
4.61418
 21
43.226
  0
LINE
  8
0
 10
4.61418
 20
43.226
 11
4.70094
 21
43.05
  0
LINE
  8
0
 10
4.70094
 20
43.05
 11
4.80994
 21
42.8869
  0
LINE
  8
0
 10
4.80994
 20
42.8869
 11
4.93935
 21
42.7393
  0
LINE
  8
0
 10
4.93935
 20
42.7393
 11
5.0869
 21
42.6099
  0
LINE
  8
0
 10
5.0869
 20
42.6099
 11
5.25003
 21
42.5009
  0
LINE
  8
0
 10
5.25003
 20
42.5009
 11
5.42596
 21
42.4142
  0
LINE
  8
0
 10
5.42596
 20
42.4142
 11
5.61176
 21
42.3511
  0
LINE
  8
0
 10
5.61176
 20
42.3511
 11
5.80415
 21
42.3128
  0
LINE
  8
0
 10
5.80415
 20
42.3128
 11
6.00006
 21
42.3
  0
LINE
  8
0
 10
6.00006
 20
42.3
 11
9.2
 21
42.3
  0
LINE
  8
0
 10
9.2
 20
42.3
 11
9.30441
 21
42.2931
  0
LINE
  8
0
 10
9.30441
 20
42.2931
 11
9.40706
 21
42.2727
  0
LINE
  8
0
 10
9.40706
 20
42.2727
 11
9.50615
 21
42.2391
  0
LINE
  8
0
 10
9.50615
 20
42.2391
 11
9.59999
 21
42.1928
  0
LINE
  8
0
 10
9.59999
 20
42.1928
 11
9.68701
 21
42.1347
  0
LINE
  8
0
 10
9.68701
 20
42.1347
 11
9.76569
 21
42.0657
  0
LINE
  8
0
 10
9.76569
 20
42.0657
 11
9.83469
 21
41.987
  0
LINE
  8
0
 10
9.83469
 20
41.987
 11
9.89282
 21
41.9
  0
LINE
  8
0
 10
9.89282
 20
41.9
 11
9.9391
 21
41.8061
  0
LINE
  8
0
 10
9.9391
 20
41.8061
 11
9.97273
 21
41.707
  0
LINE
  8
0
 10
9.97273
 20
41.707
 11
9.99315
 21
41.6044
  0
LINE
  8
0
 10
9.99315
 20
41.6044
 11
10
 21
41.5
  0
LINE
  8
0
 10
10
 20
41.5
 11
10
 21
1.99985
  0
LINE
  8
0
 10
10
 20
1.99985
 11
10.0085
 21
1.86949
  0
LINE
  8
0
 10
10.0085
 20
1.86949
 11
10.034
 21
1.74127
  0
LINE
  8
0
 10
10.034
 20
1.74127
 11
10.0762
 21
1.61725
  0
LINE
  8
0
 10
10.0762
 20
1.61725
 11
10.1339
 21
1.50008
  0
LINE
  8
0
 10
10.1339
 20
1.50008
 11
10.2067
 21
1.3912
  0
LINE
  8
0
 10
10.2067
 20
1.3912
 11
10.2929
 21
1.29289
  0
LINE
  8
0
 10
10.2929
 20
1.29289
 11
10.3912
 21
1.20668
  0
LINE
  8
0
 10
10.3912
 20
1.20668
 11
10.5001
 21
1.13394
  0
LINE
  8
0
 10
10.5001
 20
1.13394
 11
10.6172
 21
1.07616
  0
LINE
  8
0
 10
10.6172
 20
1.07616
 11
10.7413
 21
1.03404
  0
LINE
  8
0
 10
10.7413
 20
1.03404
 11
10.8695
 21
1.00854
  0
LINE
  8
0
 10
10.8695
 20
1.00854
 11
10.9998
 21
1
  0
LINE
  8
0
 10
10.9998
 20
1
 11
59.975
 21
1
  0
LINE
  8
0
 10
59.975
 20
1
 11
60.0794
 21
0.993149
  0
LINE
  8
0
 10
60.0794
 20
0.993149
 11
60.1821
 21
0.972733
  0
LINE
  8
0
 10
60.1821
 20
0.972733
 11
60.2811
 21
0.939102
  0
LINE
  8
0
 10
60.2811
 20
0.939102
 11
60.375
 21
0.892822
  0
LINE
  8
0
 10
60.375
 20
0.892822
 11
60.462
 21
0.834686
  0
LINE
  8
0
 10
60.462
 20
0.834686
 11
60.5407
 21
0.765686
  0
LINE
  8
0
 10
60.5407
 20
0.765686
 11
60.6097
 21
0.687012
  0
LINE
  8
0
 10
60.6097
 20
0.687012
 11
60.6678
 21
0.599991
  0
LINE
  8
0
 10
60.6678
 20
0.599991
 11
60.7141
 21
0.506149
  0
LINE
  8
0
 10
60.7141
 20
0.506149
 11
60.7477
 21
0.407059
  0
LINE
  8
0
 10
60.7477
 20
0.407059
 11
60.7681
 21
0.304413
  0
LINE
  8
0
 10
60.7681
 20
0.304413
 11
60.775
 21
0.199997
  0
LINE
  8
0
 10
60.775
 20
0.199997
 11
60.775
 21
-2.99994
  0
LINE
  8
0
 10
60.775
 20
-2.99994
 11
60.7878
 21
-3.19585
  0
LINE
  8
0
 10
60.7878
 20
-3.19585
 11
60.8261
 21
-3.38824
  0
LINE
  8
0
 10
60.8261
 20
-3.38824
 11
60.8892
 21
-3.57404
  0
LINE
  8
0
 10
60.8892
 20
-3.57404
 11
60.9759
 21
-3.74997
  0
LINE
  8
0
 10
60.9759
 20
-3.74997
 11
61.0849
 21
-3.9131
  0
LINE
  8
0
 10
61.0849
 20
-3.9131
 11
61.2143
 21
-4.06065
  0
LINE
  8
0
 10
61.2143
 20
-4.06065
 11
61.3619
 21
-4.19006
  0
LINE
  8
0
 10
61.3619
 20
-4.19006
 11
61.525
 21
-4.29906
  0
LINE
  8
0
 10
61.525
 20
-4.29906
 11
61.701
 21
-4.38582
  0
LINE
  8
0
 10
61.701
 20
-4.38582
 11
61.8867
 21
-4.44888
  0
LINE
  8
0
 10
61.8867
 20
-4.44888
 11
62.0791
 21
-4.48717
  0
LINE
  8
0
 10
62.0791
 20
-4.48717
 11
62.2751
 21
-4.5
  0
LINE
  8
0
 10
62.2751
 20
-4.5
 11
71.2749
 21
-4.5
  0
LINE
  8
0
 10
71.2749
 20
-4.5
 11
71.4708
 21
-4.48717
  0
LINE
  8
0
 10
221.7
 20
79.4
 11
221.7
 21
93.4
  0
LINE
  8
0
 10
221.7
 20
93.4
 11
235.7
 21
93.4
  0
LINE
  8
0
 10
235.7
 20
93.4
 11
235.7
 21
79.4
  0
LINE
  8
0
 10
235.7
 20
79.4
 11
221.7
 21
79.4
  0
LINE
  8
0
 10
50.25
 20
79.4
 11
50.25
 21
93.4
  0
LINE
  8
0
 10
50.25
 20
93.4
 11
64.25
 21
93.4
  0
LINE
  8
0
 10
64.25
 20
93.4
 11
64.25
 21
79.4
  0
LINE
  8
0
 10
64.25
 20
79.4
 11
50.25
 21
79.4
  0
LINE
  8
0
 10
69.3
 20
79.4
 11
69.3
 21
93.4
  0
LINE
  8
0
 10
69.3
 20
93.4
 11
83.3
 21
93.4
  0
LINE
  8
0
 10
83.3
 20
93.4
 11
83.3
 21
79.4
  0
LINE
  8
0
 10
83.3
 20
79.4
 11
69.3
 21
79.4
  0
LINE
  8
0
 10
88.35
 20
79.4
 11
88.35
 21
93.4
  0
LINE
  8
0
 10
88.35
 20
93.4
 11
102.35
 21
93.4
  0
LINE
  8
0
 10
102.35
 20
93.4
 11
102.35
 21
79.4
  0
LINE
  8
0
 10
102.35
 20
79.4
 11
88.35
 21
79.4
  0
LINE
  8
0
 10
107.4
 20
79.4
 11
107.4
 21
93.4
  0
LINE
  8
0
 10
107.4
 20
93.4
 11
121.4
 21
93.4
  0
LINE
  8
0
 10
121.4
 20
93.4
 11
121.4
 21
79.4
  0
LINE
  8
0
 10
121.4
 20
79.4
 11
107.4
 21
79.4
  0
LINE
  8
0
 10
126.45
 20
79.4
 11
126.45
 21
93.4
  0
LINE
  8
0
 10
126.45
 20
93.4
 11
140.45
 21
93.4
  0
LINE
  8
0
 10
140.45
 20
93.4
 11
140.45
 21
79.4
  0
LINE
  8
0
 10
140.45
 20
79.4
 11
126.45
 21
79.4
  0
LINE
  8
0
 10
145.5
 20
79.4
 11
145.5
 21
93.4
  0
LINE
  8
0
 10
145.5
 20
93.4
 11
159.5
 21
93.4
  0
LINE
  8
0
 10
159.5
 20
93.4
 11
159.5
 21
79.4
  0
LINE
  8
0
 10
159.5
 20
79.4
 11
145.5
 21
79.4
  0
LINE
  8
0
 10
164.55
 20
79.4
 11
164.55
 21
93.4
  0
LINE
  8
0
 10
164.55
 20
93.4
 11
178.55
 21
93.4
  0
LINE
  8
0
 10
178.55
 20
93.4
 11
178.55
 21
79.4
  0
LINE
  8
0
 10
178.55
 20
79.4
 11
164.55
 21
79.4
  0
LINE
  8
0
 10
183.6
 20
79.4
 11
183.6
 21
93.4
  0
LINE
  8
0
 10
183.6
 20
93.4
 11
197.6
 21
93.4
  0
LINE
  8
0
 10
197.6
 20
93.4
 11
197.6
 21
79.4
  0
LINE
  8
0
 10
197.6
 20
79.4
 11
183.6
 21
79.4
  0
LINE
  8
0
 10
202.65
 20
79.4
 11
202.65
 21
93.4
  0
LINE
  8
0
 10
202.65
 20
93.4
 11
216.65
 21
93.4
  0
LINE
  8
0
 10
216.65
 20
93.4
 11
216.65
 21
79.4
  0
LINE
  8
0
 10
216.65
 20
79.4
 11
202.65
 21
79.4
  0
LINE
  8
0
 10
240.75
 20
79.4
 11
240.75
 21
93.4
  0
LINE
  8
0
 10
240.75
 20
93.4
 11
254.75
 21
93.4
  0
LINE
  8
0
 10
254.75
 20
93.4
 11
254.75
 21
79.4
  0
LINE
  8
0
 10
254.75
 20
79.4
 11
240.75
 21
79.4
  0
LINE
  8
0
 10
259.8
 20
79.4
 11
259.8
 21
93.4
  0
LINE
  8
0
 10
259.8
 20
93.4
 11
273.8
 21
93.4
  0
LINE
  8
0
 10
273.8
 20
93.4
 11
273.8
 21
79.4
  0
LINE
  8
0
 10
273.8
 20
79.4
 11
259.8
 21
79.4
  0
LINE
  8
0
 10
278.85
 20
79.4
 11
278.85
 21
93.4
  0
LINE
  8
0
 10
278.85
 20
93.4
 11
292.85
 21
93.4
  0
LINE
  8
0
 10
292.85
 20
93.4
 11
292.85
 21
79.4
  0
LINE
  8
0
 10
292.85
 20
79.4
 11
278.85
 21
79.4
  0
LINE
  8
0
 10
12.15
 20
79.4
 11
12.15
 21
93.4
  0
LINE
  8
0
 10
12.15
 20
93.4
 11
26.15
 21
93.4
  0
LINE
  8
0
 10
26.15
 20
93.4
 11
26.15
 21
79.4
  0
LINE
  8
0
 10
26.15
 20
79.4
 11
12.15
 21
79.4
  0
LINE
  8
0
 10
31.2
 20
79.4
 11
31.2
 21
93.4
  0
LINE
  8
0
 10
31.2
 20
93.4
 11
45.2
 21
93.4
  0
LINE
  8
0
 10
45.2
 20
93.4
 11
45.2
 21
79.4
  0
LINE
  8
0
 10
45.2
 20
79.4
 11
31.2
 21
79.4
  0
LINE
  8
0
 10
16.9125
 20
60.35
 11
16.9125
 21
74.35
  0
LINE
  8
0
 10
16.9125
 20
74.35
 11
30.9125
 21
74.35
  0
LINE
  8
0
 10
30.9125
 20
74.35
 11
30.9125
 21
60.35
  0
LINE
  8
0
 10
30.9125
 20
60.35
 11
16.9125
 21
60.35
  0
LINE
  8
0
 10
97.875
 20
60.35
 11
97.875
 21
74.35
  0
LINE
  8
0
 10
97.875
 20
74.35
 11
111.875
 21
74.35
  0
LINE
  8
0
 10
111.875
 20
74.35
 11
111.875
 21
60.35
  0
LINE
  8
0
 10
111.875
 20
60.35
 11
97.875
 21
60.35
  0
LINE
  8
0
 10
59.775
 20
60.35
 11
59.775
 21
74.35
  0
LINE
  8
0
 10
59.775
 20
74.35
 11
73.775
 21
74.35
  0
LINE
  8
0
 10
73.775
 20
74.35
 11
73.775
 21
60.35
  0
LINE
  8
0
 10
73.775
 20
60.35
 11
59.775
 21
60.35
  0
LINE
  8
0
 10
40.725
 20
60.35
 11
40.725
 21
74.35
  0
LINE
  8
0
 10
40.725
 20
74.35
 11
54.725
 21
74.35
  0
LINE
  8
0
 10
54.725
 20
74.35
 11
54.725
 21
60.35
  0
LINE
  8
0
 10
54.725
 20
60.35
 11
40.725
 21
60.35
  0
LINE
  8
0
 10
116.925
 20
60.35
 11
116.925
 21
74.35
  0
LINE
  8
0
 10
116.925
 20
74.35
 11
130.925
 21
74.35
  0
LINE
  8
0
 10
130.925
 20
74.35
 11
130.925
 21
60.35
  0
LINE
  8
0
 10
130.925
 20
60.35
 11
116.925
 21
60.35
  0
LINE
  8
0
 10
135.975
 20
60.35
 11
135.975
 21
74.35
  0
LINE
  8
0
 10
135.975
 20
74.35
 11
149.975
 21
74.35
  0
LINE
  8
0
 10
149.975
 20
74.35
 11
149.975
 21
60.35
  0
LINE
  8
0
 10
149.975
 20
60.35
 11
135.975
 21
60.35
  0
LINE
  8
0
 10
155.025
 20
60.35
 11
155.025
 21
74.35
  0
LINE
  8
0
 10
155.025
 20
74.35
 11
169.025
 21
74.35
  0
LINE
  8
0
 10
169.025
 20
74.35
 11
169.025
 21
60.35
  0
LINE
  8
0
 10
169.025
 20
60.35
 11
155.025
 21
60.35
  0
LINE
  8
0
 10
174.075
 20
60.35
 11
174.075
 21
74.35
  0
LINE
  8
0
 10
174.075
 20
74.35
 11
188.075
 21
74.35
  0
LINE
  8
0
 10
188.075
 20
74.35
 11
188.075
 21
60.35
  0
LINE
  8
0
 10
188.075
 20
60.35
 11
174.075
 21
60.35
  0
LINE
  8
0
 10
193.125
 20
60.35
 11
193.125
 21
74.35
  0
LINE
  8
0
 10
193.125
 20
74.35
 11
207.125
 21
74.35
  0
LINE
  8
0
 10
207.125
 20
74.35
 11
207.125
 21
60.35
  0
LINE
  8
0
 10
207.125
 20
60.35
 11
193.125
 21
60.35
  0
LINE
  8
0
 10
231.225
 20
60.35
 11
231.225
 21
74.35
  0
LINE
  8
0
 10
231.225
 20
74.35
 11
245.225
 21
74.35
  0
LINE
  8
0
 10
245.225
 20
74.35
 11
245.225
 21
60.35
  0
LINE
  8
0
 10
245.225
 20
60.35
 11
231.225
 21
60.35
  0
LINE
  8
0
 10
250.275
 20
60.35
 11
250.275
 21
74.35
  0
LINE
  8
0
 10
250.275
 20
74.35
 11
264.275
 21
74.35
  0
LINE
  8
0
 10
264.275
 20
74.35
 11
264.275
 21
60.35
  0
LINE
  8
0
 10
264.275
 20
60.35
 11
250.275
 21
60.35
  0
LINE
  8
0
 10
274.087
 20
60.35
 11
274.087
 21
74.35
  0
LINE
  8
0
 10
274.087
 20
74.35
 11
288.087
 21
74.35
  0
LINE
  8
0
 10
288.087
 20
74.35
 11
288.087
 21
60.35
  0
LINE
  8
0
 10
288.087
 20
60.35
 11
274.087
 21
60.35
  0
LINE
  8
0
 10
78.825
 20
60.35
 11
78.825
 21
74.35
  0
LINE
  8
0
 10
78.825
 20
74.35
 11
92.825
 21
74.35
  0
LINE
  8
0
 10
92.825
 20
74.35
 11
92.825
 21
60.35
  0
LINE
  8
0
 10
92.825
 20
60.35
 11
78.825
 21
60.35
  0
LINE
  8
0
 10
212.175
 20
60.35
 11
212.175
 21
74.35
  0
LINE
  8
0
 10
212.175
 20
74.35
 11
226.175
 21
74.35
  0
LINE
  8
0
 10
226.175
 20
74.35
 11
226.175
 21
60.35
  0
LINE
  8
0
 10
226.175
 20
60.35
 11
212.175
 21
60.35
  0
LINE
  8
0
 10
45.4875
 20
41.3
 11
45.4875
 21
55.3
  0
LINE
  8
0
 10
45.4875
 20
55.3
 11
59.4875
 21
55.3
  0
LINE
  8
0
 10
59.4875
 20
55.3
 11
59.4875
 21
41.3
  0
LINE
  8
0
 10
59.4875
 20
41.3
 11
45.4875
 21
41.3
  0
LINE
  8
0
 10
64.5375
 20
41.3
 11
64.5375
 21
55.3
  0
LINE
  8
0
 10
64.5375
 20
55.3
 11
78.5375
 21
55.3
  0
LINE
  8
0
 10
78.5375
 20
55.3
 11
78.5375
 21
41.3
  0
LINE
  8
0
 10
78.5375
 20
41.3
 11
64.5375
 21
41.3
  0
LINE
  8
0
 10
83.5875
 20
41.3
 11
83.5875
 21
55.3
  0
LINE
  8
0
 10
83.5875
 20
55.3
 11
97.5875
 21
55.3
  0
LINE
  8
0
 10
97.5875
 20
55.3
 11
97.5875
 21
41.3
  0
LINE
  8
0
 10
97.5875
 20
41.3
 11
83.5875
 21
41.3
  0
LINE
  8
0
 10
121.688
 20
41.3
 11
121.688
 21
55.3
  0
LINE
  8
0
 10
121.688
 20
55.3
 11
135.688
 21
55.3
  0
LINE
  8
0
 10
135.688
 20
55.3
 11
135.688
 21
41.3
  0
LINE
  8
0
 10
135.688
 20
41.3
 11
121.688
 21
41.3
  0
LINE
  8
0
 10
159.787
 20
41.3
 11
159.787
 21
55.3
  0
LINE
  8
0
 10
159.787
 20
55.3
 11
173.787
 21
55.3
  0
LINE
  8
0
 10
173.787
 20
55.3
 11
173.787
 21
41.3
  0
LINE
  8
0
 10
173.787
 20
41.3
 11
159.787
 21
41.3
  0
LINE
  8
0
 10
178.837
 20
41.3
 11
178.837
 21
55.3
  0
LINE
  8
0
 10
178.837
 20
55.3
 11
192.837
 21
55.3
  0
LINE
  8
0
 10
192.837
 20
55.3
 11
192.837
 21
41.3
  0
LINE
  8
0
 10
192.837
 20
41.3
 11
178.837
 21
41.3
  0
LINE
  8
0
 10
197.887
 20
41.3
 11
197.887
 21
55.3
  0
LINE
  8
0
 10
197.887
 20
55.3
 11
211.887
 21
55.3
  0
LINE
  8
0
 10
211.887
 20
55.3
 11
211.887
 21
41.3
  0
LINE
  8
0
 10
211.887
 20
41.3
 11
197.887
 21
41.3
  0
LINE
  8
0
 10
216.938
 20
41.3
 11
216.938
 21
55.3
  0
LINE
  8
0
 10
216.938
 20
55.3
 11
230.938
 21
55.3
  0
LINE
  8
0
 10
230.938
 20
55.3
 11
230.938
 21
41.3
  0
LINE
  8
0
 10
230.938
 20
41.3
 11
216.938
 21
41.3
  0
LINE
  8
0
 10
235.987
 20
41.3
 11
235.987
 21
55.3
  0
LINE
  8
0
 10
235.987
 20
55.3
 11
249.987
 21
55.3
  0
LINE
  8
0
 10
249.987
 20
55.3
 11
249.987
 21
41.3
  0
LINE
  8
0
 10
249.987
 20
41.3
 11
235.987
 21
41.3
  0
LINE
  8
0
 10
266.944
 20
41.3
 11
266.944
 21
55.3
  0
LINE
  8
0
 10
266.944
 20
55.3
 11
280.944
 21
55.3
  0
LINE
  8
0
 10
280.944
 20
55.3
 11
280.944
 21
41.3
  0
LINE
  8
0
 10
280.944
 20
41.3
 11
266.944
 21
41.3
  0
LINE
  8
0
 10
102.637
 20
41.3
 11
102.637
 21
55.3
  0
LINE
  8
0
 10
102.637
 20
55.3
 11
116.637
 21
55.3
  0
LINE
  8
0
 10
116.637
 20
55.3
 11
116.637
 21
41.3
  0
LINE
  8
0
 10
116.637
 20
41.3
 11
102.637
 21
41.3
  0
LINE
  8
0
 10
19.2937
 20
41.3
 11
19.2937
 21
55.3
  0
LINE
  8
0
 10
19.2937
 20
55.3
 11
33.2937
 21
55.3
  0
LINE
  8
0
 10
33.2937
 20
55.3
 11
33.2937
 21
41.3
  0
LINE
  8
0
 10
33.2937
 20
41.3
 11
19.2937
 21
41.3
  0
LINE
  8
0
 10
140.737
 20
41.3
 11
140.737
 21
55.3
  0
LINE
  8
0
 10
140.737
 20
55.3
 11
154.737
 21
55.3
  0
LINE
  8
0
 10
154.737
 20
55.3
 11
154.737
 21
41.3
  0
LINE
  8
0
 10
154.737
 20
41.3
 11
140.737
 21
41.3
  0
LINE
  8
0
 10
258.506
 20
41.33
 11
258.506
 21
54.03
  0
LINE
  8
0
 10
258.506
 20
54.03
 11
265.506
 21
54.03
  0
LINE
  8
0
 10
265.506
 20
54.03
 11
265.506
 21
41.33
  0
LINE
  8
0
 10
265.506
 20
41.33
 11
258.506
 21
41.33
  0
LINE
  8
0
 10
282.382
 20
41.33
 11
282.382
 21
54.03
  0
LINE
  8
0
 10
282.382
 20
54.03
 11
289.382
 21
54.03
  0
LINE
  8
0
 10
289.382
 20
54.03
 11
289.382
 21
41.33
  0
LINE
  8
0
 10
289.382
 20
41.33
 11
282.382
 21
41.33
  0
LINE
  8
0
 10
24.0562
 20
22.25
 11
24.0562
 21
36.25
  0
LINE
  8
0
 10
24.0562
 20
36.25
 11
38.0562
 21
36.25
  0
LINE
  8
0
 10
38.0562
 20
36.25
 11
38.0562
 21
22.25
  0
LINE
  8
0
 10
38.0562
 20
22.25
 11
24.0562
 21
22.25
  0
LINE
  8
0
 10
55.0125
 20
22.25
 11
55.0125
 21
36.25
  0
LINE
  8
0
 10
55.0125
 20
36.25
 11
69.0125
 21
36.25
  0
LINE
  8
0
 10
69.0125
 20
36.25
 11
69.0125
 21
22.25
  0
LINE
  8
0
 10
69.0125
 20
22.25
 11
55.0125
 21
22.25
  0
LINE
  8
0
 10
74.0625
 20
22.25
 11
74.0625
 21
36.25
  0
LINE
  8
0
 10
74.0625
 20
36.25
 11
88.0625
 21
36.25
  0
LINE
  8
0
 10
88.0625
 20
36.25
 11
88.0625
 21
22.25
  0
LINE
  8
0
 10
88.0625
 20
22.25
 11
74.0625
 21
22.25
  0
LINE
  8
0
 10
131.212
 20
22.25
 11
131.212
 21
36.25
  0
LINE
  8
0
 10
131.212
 20
36.25
 11
145.212
 21
36.25
  0
LINE
  8
0
 10
145.212
 20
36.25
 11
145.212
 21
22.25
  0
LINE
  8
0
 10
145.212
 20
22.25
 11
131.212
 21
22.25
  0
LINE
  8
0
 10
278.85
 20
22.25
 11
278.85
 21
36.25
  0
LINE
  8
0
 10
278.85
 20
36.25
 11
292.85
 21
36.25
  0
LINE
  8
0
 10
292.85
 20
36.25
 11
292.85
 21
22.25
  0
LINE
  8
0
 10
292.85
 20
22.25
 11
278.85
 21
22.25
  0
LINE
  8
0
 10
252.656
 20
22.25
 11
252.656
 21
36.25
  0
LINE
  8
0
 10
252.656
 20
36.25
 11
266.656
 21
36.25
  0
LINE
  8
0
 10
266.656
 20
36.25
 11
266.656
 21
22.25
  0
LINE
  8
0
 10
266.656
 20
22.25
 11
252.656
 21
22.25
  0
LINE
  8
0
 10
226.462
 20
22.25
 11
226.462
 21
36.25
  0
LINE
  8
0
 10
226.462
 20
36.25
 11
240.462
 21
36.25
  0
LINE
  8
0
 10
240.462
 20
36.25
 11
240.462
 21
22.25
  0
LINE
  8
0
 10
240.462
 20
22.25
 11
226.462
 21
22.25
  0
LINE
  8
0
 10
207.412
 20
22.25
 11
207.412
 21
36.25
  0
LINE
  8
0
 10
207.412
 20
36.25
 11
221.412
 21
36.25
  0
LINE
  8
0
 10
221.412
 20
36.25
 11
221.412
 21
22.25
  0
LINE
  8
0
 10
221.412
 20
22.25
 11
207.412
 21
22.25
  0
LINE
  8
0
 10
188.362
 20
22.25
 11
188.362
 21
36.25
  0
LINE
  8
0
 10
188.362
 20
36.25
 11
202.362
 21
36.25
  0
LINE
  8
0
 10
202.362
 20
36.25
 11
202.362
 21
22.25
  0
LINE
  8
0
 10
202.362
 20
22.25
 11
188.362
 21
22.25
  0
LINE
  8
0
 10
169.312
 20
22.25
 11
169.312
 21
36.25
  0
LINE
  8
0
 10
169.312
 20
36.25
 11
183.312
 21
36.25
  0
LINE
  8
0
 10
183.312
 20
36.25
 11
183.312
 21
22.25
  0
LINE
  8
0
 10
183.312
 20
22.25
 11
169.312
 21
22.25
  0
LINE
  8
0
 10
150.262
 20
22.25
 11
150.262
 21
36.25
  0
LINE
  8
0
 10
150.262
 20
36.25
 11
164.262
 21
36.25
  0
LINE
  8
0
 10
164.262
 20
36.25
 11
164.262
 21
22.25
  0
LINE
  8
0
 10
164.262
 20
22.25
 11
150.262
 21
22.25
  0
LINE
  8
0
 10
112.162
 20
22.25
 11
112.162
 21
36.25
  0
LINE
  8
0
 10
112.162
 20
36.25
 11
126.162
 21
36.25
  0
LINE
  8
0
 10
126.162
 20
36.25
 11
126.162
 21
22.25
  0
LINE
  8
0
 10
126.162
 20
22.25
 11
112.162
 21
22.25
  0
LINE
  8
0
 10
93.1125
 20
22.25
 11
93.1125
 21
36.25
  0
LINE
  8
0
 10
93.1125
 20
36.25
 11
107.112
 21
36.25
  0
LINE
  8
0
 10
107.112
 20
36.25
 11
107.112
 21
22.25
  0
LINE
  8
0
 10
107.112
 20
22.25
 11
93.1125
 21
22.25
  0
LINE
  8
0
 10
39.4942
 20
22.28
 11
39.4942
 21
34.98
  0
LINE
  8
0
 10
39.4942
 20
34.98
 11
46.4942
 21
34.98
  0
LINE
  8
0
 10
46.4942
 20
34.98
 11
46.4942
 21
22.28
  0
LINE
  8
0
 10
46.4942
 20
22.28
 11
39.4942
 21
22.28
  0
LINE
  8
0
 10
15.6183
 20
22.28
 11
15.6183
 21
34.98
  0
LINE
  8
0
 10
15.6183
 20
34.98
 11
22.6183
 21
34.98
  0
LINE
  8
0
 10
22.6183
 20
34.98
 11
22.6183
 21
22.28
  0
LINE
  8
0
 10
22.6183
 20
22.28
 11
15.6183
 21
22.28
  0
LINE
  8
0
 10
40.725
 20
3.2
 11
40.725
 21
17.2
  0
LINE
  8
0
 10
40.725
 20
17.2
 11
54.725
 21
17.2
  0
LINE
  8
0
 10
54.725
 20
17.2
 11
54.725
 21
3.2
  0
LINE
  8
0
 10
54.725
 20
3.2
 11
40.725
 21
3.2
  0
LINE
  8
0
 10
64.5375
 20
3.2
 11
64.5375
 21
17.2
  0
LINE
  8
0
 10
64.5375
 20
17.2
 11
78.5375
 21
17.2
  0
LINE
  8
0
 10
78.5375
 20
17.2
 11
78.5375
 21
3.2
  0
LINE
  8
0
 10
78.5375
 20
3.2
 11
64.5375
 21
3.2
  0
LINE
  8
0
 10
145.5
 20
3.2
 11
145.5
 21
17.2
  0
LINE
  8
0
 10
145.5
 20
17.2
 11
159.5
 21
17.2
  0
LINE
  8
0
 10
159.5
 20
17.2
 11
159.5
 21
3.2
  0
LINE
  8
0
 10
159.5
 20
3.2
 11
145.5
 21
3.2
  0
LINE
  8
0
 10
226.462
 20
3.2
 11
226.462
 21
17.2
  0
LINE
  8
0
 10
226.462
 20
17.2
 11
240.462
 21
17.2
  0
LINE
  8
0
 10
240.462
 20
17.2
 11
240.462
 21
3.2
  0
LINE
  8
0
 10
240.462
 20
3.2
 11
226.462
 21
3.2
  0
LINE
  8
0
 10
250.275
 20
3.2
 11
250.275
 21
17.2
  0
LINE
  8
0
 10
250.275
 20
17.2
 11
264.275
 21
17.2
  0
LINE
  8
0
 10
264.275
 20
17.2
 11
264.275
 21
3.2
  0
LINE
  8
0
 10
264.275
 20
3.2
 11
250.275
 21
3.2
  0
LINE
  8
0
 10
91.85
 20
3.23001
 11
91.85
 21
15.93
  0
LINE
  8
0
 10
91.85
 20
15.93
 11
98.85
 21
15.93
  0
LINE
  8
0
 10
98.85
 20
15.93
 11
98.85
 21
3.23001
  0
LINE
  8
0
 10
98.85
 20
3.23001
 11
91.85
 21
3.23001
  0
LINE
  8
0
 10
206.15
 20
3.23001
 11
206.15
 21
15.93
  0
LINE
  8
0
 10
206.15
 20
15.93
 11
213.15
 21
15.93
  0
LINE
  8
0
 10
213.15
 20
15.93
 11
213.15
 21
3.23001
  0
LINE
  8
0
 10
213.15
 20
3.23001
 11
206.15
 21
3.23001
  0
ENDSEC
  0
SECTION
  2
OBJECTS
  0
DICTIONARY
  0
ENDSEC
  0
EOF
